<svg xmlns="http://www.w3.org/2000/svg" xmlns:xlink="http://www.w3.org/1999/xlink" width="32" height="32"><defs><linearGradient id="d"><stop offset="0" stop-color="#fff"/><stop offset=".063" stop-color="#fff" stop-opacity=".235"/><stop offset=".951" stop-color="#fff" stop-opacity=".157"/><stop offset="1" stop-color="#fff" stop-opacity=".392"/></linearGradient><linearGradient id="a"><stop offset="0" stop-color="#181818"/><stop offset="1" stop-color="#181818" stop-opacity="0"/></linearGradient><linearGradient id="b"><stop offset="0" stop-color="#181818"/><stop offset="1" stop-color="#181818" stop-opacity="0"/></linearGradient><linearGradient x1="25.058" y1="47.028" x2="25.058" y2="39.999" id="i" xlink:href="#c" gradientUnits="userSpaceOnUse"/><linearGradient id="c"><stop offset="0" stop-color="#181818" stop-opacity="0"/><stop offset=".5" stop-color="#181818"/><stop offset="1" stop-color="#181818" stop-opacity="0"/></linearGradient><linearGradient id="f"><stop offset="0" stop-color="#fff"/><stop offset="1" stop-color="#e6f4f8"/></linearGradient><linearGradient xlink:href="#d" id="k" gradientUnits="userSpaceOnUse" gradientTransform="translate(1.081 2.081) scale(.62162)" x1="24" y1="5" x2="24" y2="43"/><linearGradient id="e"><stop offset="0" stop-color="#90dbec"/><stop offset=".262" stop-color="#55c1ec"/><stop offset=".705" stop-color="#3689e6"/><stop offset="1" stop-color="#2b63a0"/></linearGradient><linearGradient xlink:href="#f" id="l" gradientUnits="userSpaceOnUse" gradientTransform="matrix(.42654 0 0 .4147 -54.033 2.523)" x1="167.983" y1="13.399" x2="167.983" y2="54.78"/><radialGradient cx="4.993" cy="43.5" r="2.5" fx="4.993" fy="43.5" id="g" xlink:href="#a" gradientUnits="userSpaceOnUse" gradientTransform="matrix(2.00378 0 0 1.4 27.988 -17.4)"/><radialGradient cx="4.993" cy="43.5" r="2.5" fx="4.993" fy="43.5" id="h" xlink:href="#b" gradientUnits="userSpaceOnUse" gradientTransform="matrix(2.00378 0 0 1.4 -20.012 -104.4)"/><radialGradient xlink:href="#e" id="j" gradientUnits="userSpaceOnUse" gradientTransform="matrix(0 3.8462 -7.47433 0 90.955 -34.12)" cx="7.739" cy="9.957" fx="7.209" fy="9.957" r="12.672"/></defs><g opacity=".4"><path fill="url(#g)" d="M38 40h5v7h-5z" transform="matrix(.73684 0 0 .42857 -1.684 10.857)"/><path transform="matrix(-.73684 0 0 -.42857 -1.684 10.857)" fill="url(#h)" d="M-10-47h5v7h-5z"/><path fill="url(#i)" d="M10 40h28v7H10z" transform="matrix(.73684 0 0 .42857 -1.684 10.857)"/></g><rect style="marker:none" y="4.5" x="3.5" ry="2" rx="2" height="25" width="25" color="#000" fill="url(#j)" overflow="visible"/><rect y="5.5" x="4.5" ry="1" rx="1" height="23" width="23" opacity=".5" fill="none" stroke="url(#k)" stroke-linecap="round" stroke-linejoin="round"/><rect style="marker:none" y="4.5" x="3.5" ry="2" rx="2" height="25" width="25" opacity=".4" color="#000" fill="none" stroke="#003164" stroke-linecap="round" stroke-linejoin="round" overflow="visible"/><path style="marker:none" d="M6.594 8C5.724 8 5 8.737 5 9.594v5.812C5 16.263 5.724 17 6.594 17h7.812c.87 0 1.594-.737 1.594-1.594V9.594C16 8.737 15.276 8 14.406 8H6.594zM18.53 9C17.557 9 17 9.862 17 10.656v5.688c0 .794.557 1.656 1.531 1.656H10.72C9.749 18 9 18.835 9 19.75v6.5c0 .915.749 1.75 1.719 1.75h9.562c.97 0 1.719-.835 1.719-1.75v-6.5c0-.915-.749-1.75-1.719-1.75h5.188c.974 0 1.531-.862 1.531-1.656v-5.688C27 9.862 26.443 9 25.469 9H18.53z" opacity=".15" color="#000" fill="#0974ae" overflow="visible"/><path style="marker:none" d="M6.594 9A.594.594 0 006 9.594v5.812c0 .323.261.594.594.594h7.812c.333 0 .594-.27.594-.594V9.594A.594.594 0 0014.406 9H6.594zm11.937 1c-.295 0-.531.304-.531.656v5.688c0 .352.236.656.531.656h6.938c.295 0 .531-.304.531-.656v-5.688c0-.352-.236-.656-.531-.656H18.53zm-7.812 9c-.407 0-.719.347-.719.75v6.5c0 .403.312.75.719.75h9.562c.407 0 .719-.347.719-.75v-6.5c0-.403-.312-.75-.719-.75H10.72z" color="#000" fill="#0935ae" overflow="visible" opacity=".3"/><path style="marker:none" d="M6.594 8A.594.594 0 006 8.594v5.812c0 .323.261.594.594.594h7.812c.333 0 .594-.27.594-.594V8.594A.594.594 0 0014.406 8H6.594zM18.53 9c-.295 0-.531.304-.531.656v5.688c0 .352.236.656.531.656h6.938c.295 0 .531-.304.531-.656V9.656c0-.352-.236-.656-.531-.656H18.53zm-7.812 9c-.407 0-.719.347-.719.75v6.5c0 .403.312.75.719.75h9.562c.407 0 .719-.347.719-.75v-6.5c0-.403-.312-.75-.719-.75H10.72z" color="#000" fill="url(#l)" overflow="visible"/></svg>