<svg xmlns="http://www.w3.org/2000/svg" xmlns:xlink="http://www.w3.org/1999/xlink" width="64" height="64"><defs><linearGradient id="i"><stop offset="0" stop-color="#fff"/><stop offset=".011" stop-color="#fff" stop-opacity=".235"/><stop offset=".994" stop-color="#fff" stop-opacity=".157"/><stop offset="1" stop-color="#fff" stop-opacity=".392"/></linearGradient><linearGradient id="d"><stop offset="0" stop-color="#fff"/><stop offset=".063" stop-color="#fff" stop-opacity=".235"/><stop offset=".951" stop-color="#fff" stop-opacity=".157"/><stop offset="1" stop-color="#fff" stop-opacity=".392"/></linearGradient><linearGradient id="a"><stop offset="0" stop-color="#181818"/><stop offset="1" stop-color="#181818" stop-opacity="0"/></linearGradient><linearGradient id="b"><stop offset="0" stop-color="#181818"/><stop offset="1" stop-color="#181818" stop-opacity="0"/></linearGradient><linearGradient id="c"><stop offset="0" stop-color="#181818" stop-opacity="0"/><stop offset=".5" stop-color="#181818"/><stop offset="1" stop-color="#181818" stop-opacity="0"/></linearGradient><linearGradient x1="25.058" y1="47.028" x2="25.058" y2="39.999" id="t" xlink:href="#c" gradientUnits="userSpaceOnUse"/><linearGradient id="h"><stop offset="0" stop-color="#fff"/><stop offset=".011" stop-color="#fff" stop-opacity=".235"/><stop offset=".994" stop-color="#fff" stop-opacity=".157"/><stop offset="1" stop-color="#fff" stop-opacity=".392"/></linearGradient><linearGradient id="j"><stop offset="0" stop-color="#ffcd7d"/><stop offset=".262" stop-color="#fc8f36"/><stop offset=".705" stop-color="#e23a0e"/><stop offset="1" stop-color="#ac441f"/></linearGradient><linearGradient id="f"><stop offset="0" stop-color="#dad7bd"/><stop offset="1" stop-color="#e8e5d4"/></linearGradient><linearGradient id="e"><stop offset="0" stop-color="#5e5750"/><stop offset="1" stop-color="#756d65"/></linearGradient><linearGradient id="g"><stop offset="0" stop-color="#fff"/><stop offset=".107" stop-color="#fff" stop-opacity=".235"/><stop offset=".994" stop-color="#fff" stop-opacity=".157"/><stop offset="1" stop-color="#fff" stop-opacity=".392"/></linearGradient><linearGradient x1="24" y1="5" x2="24" y2="43" id="v" xlink:href="#d" gradientUnits="userSpaceOnUse" gradientTransform="matrix(1.43243 0 0 1.54054 -2.378 -6.902)"/><linearGradient x1="15" y1="5" x2="15" y2="16" id="A" xlink:href="#e" gradientUnits="userSpaceOnUse" gradientTransform="matrix(1.40625 0 0 1.27273 -1.75 -1.864)"/><linearGradient x1="16" y1="4" x2="16" y2="15" id="z" xlink:href="#f" gradientUnits="userSpaceOnUse" gradientTransform="matrix(1.39372 0 0 1.33264 -1.08 -1.527)"/><linearGradient x1="43.816" y1="-10.328" x2="43.816" y2="-57.312" id="y" xlink:href="#g" gradientUnits="userSpaceOnUse" gradientTransform="matrix(.46192 0 0 .34595 8.695 22.397)"/><linearGradient x1="24" y1="7.052" x2="24" y2="40.9" id="x" xlink:href="#i" gradientUnits="userSpaceOnUse" gradientTransform="matrix(.48649 0 0 .32432 32.824 39.716)"/><linearGradient x1="24" y1="7.052" x2="24" y2="40.9" id="C" xlink:href="#l" gradientUnits="userSpaceOnUse" gradientTransform="matrix(.48649 0 0 .32432 32.824 21.716)"/><linearGradient id="l"><stop offset="0" stop-color="#fff"/><stop offset=".011" stop-color="#fff" stop-opacity=".235"/><stop offset=".994" stop-color="#fff" stop-opacity=".157"/><stop offset="1" stop-color="#fff" stop-opacity=".392"/></linearGradient><linearGradient x1="-6.392" y1="30.306" x2="-6.392" y2="39.935" id="B" xlink:href="#m" gradientUnits="userSpaceOnUse" gradientTransform="matrix(1.42105 0 0 1.42105 55.009 -20.579)"/><linearGradient id="m"><stop offset="0" stop-color="#918e88"/><stop offset="1" stop-color="#605c58"/></linearGradient><linearGradient x1="24" y1="7.052" x2="24" y2="40.9" id="E" xlink:href="#n" gradientUnits="userSpaceOnUse" gradientTransform="matrix(.48649 0 0 .32432 7.824 21.716)"/><linearGradient id="n"><stop offset="0" stop-color="#fff"/><stop offset=".011" stop-color="#fff" stop-opacity=".235"/><stop offset=".994" stop-color="#fff" stop-opacity=".157"/><stop offset="1" stop-color="#fff" stop-opacity=".392"/></linearGradient><linearGradient id="o"><stop offset="0" stop-color="#918e88"/><stop offset="1" stop-color="#605c58"/></linearGradient><linearGradient x1="-6.392" y1="30.306" x2="-6.392" y2="39.935" id="D" xlink:href="#o" gradientUnits="userSpaceOnUse" gradientTransform="matrix(1.42105 0 0 1.42105 30.009 -20.579)"/><linearGradient id="q"><stop offset="0" stop-color="#fff"/><stop offset=".011" stop-color="#fff" stop-opacity=".235"/><stop offset=".994" stop-color="#fff" stop-opacity=".157"/><stop offset="1" stop-color="#fff" stop-opacity=".392"/></linearGradient><linearGradient id="p"><stop offset="0" stop-color="#918e88"/><stop offset="1" stop-color="#605c58"/></linearGradient><linearGradient x1="-6.392" y1="30.306" x2="-6.392" y2="39.935" id="F" xlink:href="#p" gradientUnits="userSpaceOnUse" gradientTransform="matrix(1.42105 0 0 1.42105 30.009 -20.579)"/><linearGradient x1="24" y1="7.052" x2="24" y2="40.9" id="G" xlink:href="#q" gradientUnits="userSpaceOnUse" gradientTransform="matrix(.48649 0 0 .32432 7.824 21.716)"/><radialGradient cx="4.993" cy="43.5" r="2.5" fx="4.993" fy="43.5" id="r" xlink:href="#a" gradientUnits="userSpaceOnUse" gradientTransform="matrix(2.00378 0 0 1.4 27.988 -17.4)"/><radialGradient cx="4.993" cy="43.5" r="2.5" fx="4.993" fy="43.5" id="s" xlink:href="#b" gradientUnits="userSpaceOnUse" gradientTransform="matrix(2.00378 0 0 1.4 -20.012 -104.4)"/><radialGradient cx="6.73" cy="9.957" r="12.672" fx="6.2" fy="9.957" id="w" xlink:href="#j" gradientUnits="userSpaceOnUse" gradientTransform="matrix(0 3.40938 -5.97947 0 104.464 10.109)"/><radialGradient cx="6.73" cy="9.957" r="12.672" fx="6.2" fy="9.957" id="u" xlink:href="#k" gradientUnits="userSpaceOnUse" gradientTransform="matrix(0 14.12457 -16.14456 0 193.904 -124.906)"/><radialGradient cx="23.896" cy="3.99" r="20.397" id="k" gradientUnits="userSpaceOnUse" gradientTransform="matrix(0 1.23165 -1.62575 0 18.487 -28.722)"><stop offset="0" stop-color="#fff"/><stop offset=".262" stop-color="#ddd"/><stop offset=".661" stop-color="#abacae"/><stop offset="1" stop-color="#89898b"/></radialGradient></defs><g opacity=".4"><path fill="url(#r)" d="M38 40h5v7h-5z" transform="matrix(1.57895 0 0 .71429 -5.895 27.929)"/><path transform="matrix(-1.57895 0 0 -.71429 -5.895 27.929)" fill="url(#s)" d="M-10-47h5v7h-5z"/><path fill="url(#t)" d="M10 40h28v7H10z" transform="matrix(1.57895 0 0 .71429 -5.895 27.929)"/></g><rect width="54" height="58" rx="2.5" ry="2.5" x="5" y="1" style="marker:none" color="#000" fill="url(#u)" overflow="visible"/><rect width="53" height="57" rx="2" ry="2" x="5.5" y="1.571" opacity=".5" fill="none" stroke="url(#v)" stroke-linecap="round" stroke-linejoin="round"/><rect width="55" height="59" rx="3" ry="3" x="4.5" y=".5" style="marker:none" opacity=".4" color="#000" fill="none" stroke="#000" stroke-linecap="round" stroke-linejoin="round" overflow="visible"/><rect width="20" height="14" rx="1" ry="1" x="34.5" y="40.5" style="marker:none" color="#000" fill="url(#w)" overflow="visible"/><path opacity=".3" fill="none" stroke="url(#x)" stroke-linecap="round" stroke-linejoin="round" d="M35.5 41.5h18v12h-18z"/><rect width="20" height="14" rx="1" ry="1" x="34.5" y="40.5" style="marker:none" opacity=".4" color="#000" fill="none" stroke="#640000" stroke-linecap="round" stroke-linejoin="round" overflow="visible"/><rect width="47" height="16" rx="2" ry="2" x="8.5" y="3.5" style="marker:none" opacity=".5" color="#000" fill="none" stroke="url(#y)" stroke-linecap="round" stroke-linejoin="round" overflow="visible"/><rect width="46" height="15" rx="2" ry="2" x="9" y="4" style="marker:none" color="#000" fill="url(#z)" stroke-width=".75" overflow="visible"/><rect width="45" height="14" rx="1" ry="1" x="9.5" y="4.5" style="marker:none" opacity=".7" color="#000" fill="none" stroke="url(#A)" overflow="visible"/><path d="M33.554 7.842c-.884 0-1.626.25-2.265.71l.667 1.022c.29-.188.563-.323.799-.4.24-.076.48-.133.71-.133.665 0 .977.27.977.8 0 .344-.102.566-.355.71-.249.14-.656.222-1.199.222h-.533v1.155h.533c.588 0 1.02.04 1.288.177.268.138.4.382.4.71 0 .368-.122.634-.356.8-.233.166-.621.267-1.11.267-.32 0-.607-.047-.932-.134a4.958 4.958 0 01-.933-.355v1.288c.588.252 1.283.355 2.043.355.907 0 1.598-.159 2.087-.533.489-.377.755-.924.755-1.598 0-.464-.153-.84-.444-1.11-.29-.275-.723-.419-1.288-.49v-.043c.48-.115.845-.316 1.11-.622.265-.307.4-.673.4-1.11 0-.524-.2-.95-.622-1.244-.418-.294-1.007-.444-1.732-.444zm8.571.089L39.86 9.75l.71.889.8-.666c.096-.077.287-.243.533-.489l-.044.755V14.947h1.465V7.931zm5.995 0l-3.064 4.53v1.02h2.975v1.466h1.466v-1.465h.843v-1.155h-.843V7.931zm-.044 1.687c-.01.061.016.29 0 .667-.016.376-.045.69-.045.888v1.154h-1.687l1.288-1.91c.166-.248.325-.537.444-.799zm-10.17 3.82c-.274 0-.522.084-.666.222-.144.137-.177.353-.177.621 0 .259.075.434.222.578.146.14.353.222.621.222.262 0 .43-.079.578-.222.146-.147.222-.325.222-.578 0-.262-.076-.48-.222-.621-.144-.141-.313-.222-.578-.223z" style="text-align:end;line-height:125%;-inkscape-font-specification:Open Sans Bold" font-size="6.905" font-weight="700" letter-spacing="0" word-spacing="0" text-anchor="end" fill="#6d6a59" font-family="Open Sans"/><path style="marker:none" opacity=".05" color="#000" fill="none" stroke="#000" overflow="visible" d="M10.5 5.5h43v12h-43z"/><rect width="20" height="14" rx="1" ry="1" x="34.5" y="22.5" style="marker:none" color="#000" fill="url(#B)" overflow="visible"/><path opacity=".3" fill="none" stroke="url(#C)" stroke-linecap="round" stroke-linejoin="round" d="M35.5 23.5h18v12h-18z"/><rect width="20" height="14" rx="1" ry="1" x="34.5" y="22.5" style="marker:none" opacity=".4" color="#000" fill="none" stroke="#000" stroke-linecap="round" stroke-linejoin="round" overflow="visible"/><rect width="20" height="14" rx="1" ry="1" x="9.5" y="22.5" style="marker:none" color="#000" fill="url(#D)" overflow="visible"/><path opacity=".3" fill="none" stroke="url(#E)" stroke-linecap="round" stroke-linejoin="round" d="M10.5 23.5h18v12h-18z"/><rect width="20" height="14" rx="1" ry="1" x="9.5" y="22.5" style="marker:none" opacity=".4" color="#000" fill="none" stroke="#000" stroke-linecap="round" stroke-linejoin="round" overflow="visible"/><g transform="translate(0 18)"><rect width="20" height="14" rx="1" ry="1" x="9.5" y="22.5" style="marker:none" color="#000" fill="url(#F)" overflow="visible"/><path opacity=".3" fill="none" stroke="url(#G)" stroke-linecap="round" stroke-linejoin="round" d="M10.5 23.5h18v12h-18z"/><rect width="20" height="14" rx="1" ry="1" x="9.5" y="22.5" style="marker:none" opacity=".4" color="#000" fill="none" stroke="#000" stroke-linecap="round" stroke-linejoin="round" overflow="visible"/></g><path d="M19 27v3h-3v1h3v3h1v-3h3v-1h-3v-3h-1zm22 3v1h7v-1h-7zM16 45v1l2.5 2.5L16 51v1h1l2.5-2.5L22 52h1v-1l-2.5-2.5L23 46v-1h-1l-2.5 2.5L17 45h-1zm25 2v1h7v-1h-7zm0 2v1h7v-1h-7z" style="line-height:125%;marker:none;-inkscape-font-specification:Helvetica" font-size="9.881" font-weight="400" letter-spacing="0" word-spacing="0" opacity=".2" color="#000" overflow="visible" font-family="Helvetica"/><path d="M19 26v3h-3v1h3v3h1v-3h3v-1h-3v-3h-1zm22 3v1h7v-1h-7zM16 44v1l2.5 2.5L16 50v1h1l2.5-2.5L22 51h1v-1l-2.5-2.5L23 45v-1h-1l-2.5 2.5L17 44h-1zm25 2v1h7v-1h-7zm0 2v1h7v-1h-7z" style="line-height:125%;-inkscape-font-specification:Helvetica" font-size="9.881" font-weight="400" letter-spacing="0" word-spacing="0" fill="#fff" font-family="Helvetica"/></svg>