<svg xmlns="http://www.w3.org/2000/svg" xmlns:xlink="http://www.w3.org/1999/xlink" height="64" width="64" version="1.0"><defs><linearGradient id="l"><stop offset="0" stop-color="#fff"/><stop offset=".444" stop-color="#fff" stop-opacity=".235"/><stop offset=".778" stop-color="#fff" stop-opacity=".157"/><stop offset="1" stop-color="#fff" stop-opacity=".392"/></linearGradient><linearGradient id="j"><stop offset="0" stop-color="#fff"/><stop offset="1" stop-color="#fff" stop-opacity="0"/></linearGradient><linearGradient id="d"><stop offset="0" stop-color="#fff"/><stop offset=".016" stop-color="#fff" stop-opacity=".235"/><stop offset=".993" stop-color="#fff" stop-opacity=".157"/><stop offset="1" stop-color="#fff" stop-opacity=".392"/></linearGradient><linearGradient id="a"><stop offset="0" stop-color="#787878"/><stop offset=".35" stop-color="#bebebe"/><stop offset=".494" stop-color="#c8c8c8"/><stop offset=".589" stop-color="#e6e6e6"/><stop offset="1" stop-color="#8c8c8c"/></linearGradient><linearGradient id="b"><stop offset="0"/><stop offset="1" stop-opacity="0"/></linearGradient><linearGradient gradientTransform="matrix(1.31115 0 0 1.3337 -437.614 -66.533)" gradientUnits="userSpaceOnUse" xlink:href="#a" id="o" y2="94.396" x2="361.106" y1="87.05" x1="361.106"/><linearGradient id="e"><stop offset="0" stop-color="#261e2b"/><stop offset="1" stop-color="#352f39"/></linearGradient><linearGradient id="c"><stop offset="0" stop-color="#fff"/><stop offset="1" stop-color="#fff" stop-opacity="0"/></linearGradient><linearGradient gradientTransform="matrix(1.55 0 0 1.55556 -.55 17.444)" gradientUnits="userSpaceOnUse" xlink:href="#c" id="r" y2="12" x2="20" y1="-3" x1="10"/><linearGradient gradientTransform="matrix(1.64865 0 0 1.13514 -7.568 -.743)" gradientUnits="userSpaceOnUse" xlink:href="#d" id="q" y2="42.121" x2="24" y1="5.753" x1="24"/><linearGradient gradientTransform="matrix(1.4 0 0 1.56522 2.6 21.022)" gradientUnits="userSpaceOnUse" xlink:href="#e" id="p" y2="2" x2="15" y1="24.619" x1="15"/><linearGradient gradientTransform="matrix(1.21622 0 0 .83784 2.666 14.977)" gradientUnits="userSpaceOnUse" xlink:href="#f" id="s" y2="40.265" x2="25.005" y1="51.076" x1="25.005"/><linearGradient id="f"><stop offset="0" stop-color="#fff"/><stop offset=".063" stop-color="#fff" stop-opacity=".235"/><stop offset=".969" stop-color="#fff" stop-opacity=".157"/><stop offset="1" stop-color="#fff" stop-opacity=".392"/></linearGradient><linearGradient id="h"><stop offset="0" stop-color="#d1d1d1"/><stop offset="1" stop-color="#eaeaea"/></linearGradient><linearGradient id="g"><stop offset="0"/><stop offset="1" stop-opacity="0"/></linearGradient><linearGradient id="i"><stop offset="0" stop-color="#fff"/><stop offset="1" stop-color="#fff" stop-opacity="0"/></linearGradient><linearGradient id="m"><stop offset="0" stop-color="#fff"/><stop offset=".444" stop-color="#fff" stop-opacity=".235"/><stop offset=".778" stop-color="#fff" stop-opacity=".157"/><stop offset="1" stop-color="#fff" stop-opacity=".392"/></linearGradient><linearGradient id="k"><stop offset="0" stop-color="#f89b7e"/><stop offset=".262" stop-color="#e35d4f"/><stop offset=".661" stop-color="#c6262e"/><stop offset="1" stop-color="#690b2c"/></linearGradient><linearGradient y2="43" x2="59" y1="40" x1="56" gradientUnits="userSpaceOnUse" id="w" xlink:href="#i"/><linearGradient y2="43" x2="59" y1="40" x1="56" gradientUnits="userSpaceOnUse" id="y" xlink:href="#j"/><linearGradient y2="72.33" x2="61.183" y1="64.032" x1="61.147" gradientTransform="matrix(1.03685 0 -.00451 1.0846 -6.11 -18.45)" gradientUnits="userSpaceOnUse" id="A" xlink:href="#l"/><linearGradient y2="72.33" x2="61.183" y1="64.032" x1="61.147" gradientTransform="matrix(1.03685 0 -.00451 1.0846 -6.11 -18.45)" gradientUnits="userSpaceOnUse" id="B" xlink:href="#m"/><radialGradient gradientTransform="matrix(2.5824 0 0 .55337 14.69 17.93)" gradientUnits="userSpaceOnUse" xlink:href="#b" id="n" fy="73.616" fx="6.703" r="7.228" cy="73.616" cx="6.703"/><radialGradient gradientTransform="matrix(.7549 0 0 .37759 8.702 58.251)" gradientUnits="userSpaceOnUse" xlink:href="#g" id="u" fy="4.625" fx="62.625" r="10.625" cy="4.625" cx="62.625"/><radialGradient gradientTransform="matrix(.7549 0 0 .37759 -1.992 58.251)" gradientUnits="userSpaceOnUse" xlink:href="#g" id="t" fy="4.625" fx="62.625" r="10.625" cy="4.625" cx="62.625"/><radialGradient r="3.527" fy="1039.7" fx="15" cy="1039.7" cx="15" gradientTransform="matrix(-.75812 -1.51676 -2.27432 1.13758 2421.339 -1113.363)" gradientUnits="userSpaceOnUse" id="v" xlink:href="#h"/><radialGradient r="3.527" fy="1039.7" fx="15" cy="1039.7" cx="15" gradientTransform="matrix(.75812 -1.51676 2.27432 1.13758 -2320.005 -1113.363)" gradientUnits="userSpaceOnUse" id="x" xlink:href="#h"/><radialGradient r="12.672" fy="9.994" fx="8.276" cy="9.994" cx="8.276" gradientTransform="matrix(0 3.56135 -4.3722 0 94.718 9.73)" gradientUnits="userSpaceOnUse" id="z" xlink:href="#k"/></defs><path style="marker:none" d="M50.667 58.667c0 2.209-8.358 4-18.667 4-10.31 0-18.667-1.791-18.667-4 0-2.21 8.358-4 18.667-4 10.31 0 18.667 1.79 18.667 4z" opacity=".3" fill="url(#n)" stroke-width=".8" overflow="visible"/><path style="marker:none" d="M23.92 48.5s.186 5.677-.744 7c-.93 1.324-2.782 1.34-2.782 1.34-1.188.138-1.198 2.66 0 2.66h23.212c1.198 0 1.188-2.524 0-2.66 0 0-1.851-.016-2.782-1.34-.93-1.323-.744-7-.744-7H23.92z" fill="url(#o)" stroke-width=".998" overflow="visible"/><rect y="4.5" x=".5" ry="1.333" rx="1.4" height="44" width="63" fill="#1a1a1a" stroke="#000" stroke-linecap="round" stroke-linejoin="round" stroke-dashoffset=".5"/><path d="M4 8.5h56v36H4z" fill="url(#p)"/><path d="M4 8.5v36h56v-36H4zm1 1h54v34H5v-34z" opacity=".2"/><rect y="5.5" x="1.5" ry="0" rx="0" height="42" width="61" opacity=".2" fill="none" stroke="url(#q)" stroke-linecap="round" stroke-linejoin="round"/><path d="M1 5v28l62-20.417V5z" opacity=".2" fill="url(#r)"/><path style="marker:none" d="M23.92 48.5s.186 5.677-.744 7c-.93 1.324-2.782 1.34-2.782 1.34-1.188.138-1.198 2.66 0 2.66h23.212c1.198 0 1.188-2.524 0-2.66 0 0-1.851-.016-2.782-1.34-.93-1.323-.744-7-.744-7H23.92h0z" opacity=".4" color="#000" fill="none" stroke="#000" stroke-width=".998" stroke-linecap="round" stroke-linejoin="round" stroke-dashoffset=".5" overflow="visible"/><path style="marker:none" d="M24.906 49.5c.012.552.044.95 0 2.031-.032.816-.098 1.69-.218 2.469-.12.78-.252 1.443-.688 2.063-1.194 1.697-3.116 1.748-3.406 1.75a.966.966 0 00-.094.406c0 .137.04.224.063.281h22.875c.022-.057.062-.144.062-.281a.966.966 0 00-.094-.407c-.29 0-2.212-.052-3.406-1.75-.436-.62-.567-1.283-.688-2.062-.12-.78-.186-1.653-.218-2.469-.044-1.081-.012-1.479 0-2.031H24.906zm18.5 8.313c-.035-.061.014.025.063.03v-.03h-.063zm-22.812 0h-.063v.03c.048-.005.098-.091.063-.03z" opacity=".6" color="#000" fill="none" stroke="url(#s)" stroke-linecap="round" stroke-linejoin="round" overflow="visible"/><path style="marker:none" d="M53.305 59.998c0 2.215-3.591 4.012-8.021 4.012-4.43 0-8.021-1.797-8.021-4.012 0-2.216 3.591-4.012 8.02-4.012 4.43 0 8.022 1.796 8.022 4.012z" opacity=".4" fill="url(#t)" fill-rule="evenodd" overflow="visible"/><g opacity=".3"><path d="M49 42c4 0 4 0 4-4M53 18c0-4 0-4-4-4M11 38c0 4 0 4 4 4M15 14c-4 0-4 0-4 4" fill="none" stroke="#000" stroke-width="2"/><path d="M52 24h2v8h-2zM29 41v2h-8v-2zM43 41v2h-8v-2zM12 32h-2v-8h2zM35 15v-2h8v2zM21 15v-2h8v2z" fill-rule="evenodd"/></g><g opacity=".5"><path d="M49 41c4 0 4 0 4-4M53 17c0-4 0-4-4-4M11 37c0 4 0 4 4 4M15 13c-4 0-4 0-4 4" fill="none" stroke="#fff" stroke-width="2"/><path d="M52 23h2v8h-2zM29 40v2h-8v-2zM43 40v2h-8v-2zM12 31h-2v-8h2zM35 14v-2h8v2zM21 14v-2h8v2z" fill="#fff" fill-rule="evenodd"/></g><path style="marker:none" d="M64 59.998c0 2.215-3.592 4.012-8.022 4.012s-8.02-1.797-8.02-4.012c0-2.216 3.59-4.012 8.02-4.012S64 57.782 64 59.998z" opacity=".4" fill="url(#u)" fill-rule="evenodd" overflow="visible"/><path d="M50.034 46.625l-7.085-13.106s-4.946 10.431 7.085 17.118z" fill="url(#v)" transform="translate(.095)"/><path transform="matrix(-1 0 0 1 101.403 0)" d="M58.031 36.344l-5.687 10.562v1.75c4.361-2.972 5.755-6.345 5.968-9.156.097-1.262-.1-2.249-.28-3.156z" fill="none" stroke="url(#w)"/><path d="M50.129 46.625l-7.085-13.106s-4.947 10.431 7.085 17.118z" opacity=".5" fill="none" stroke="#000"/><g><path d="M51.3 46.625l7.085-13.106S63.33 43.95 51.3 50.637z" fill="url(#x)" transform="translate(-.178)"/><path d="M58.031 36.344l-5.687 10.562v1.75c4.361-2.972 5.755-6.345 5.968-9.156.097-1.262-.1-2.249-.28-3.156z" fill="none" stroke="url(#y)" transform="translate(-.178)"/><path d="M51.121 46.625l7.085-13.106s4.947 10.431-7.085 17.118z" opacity=".5" fill="none" stroke="#000"/></g><g color="#000"><path style="marker:none" d="M47.375 50.625c-1.845.098-6.781 1.226-6.781 4.688 0 3.956 2.933 5.343 4.687 5.343 1.755 0 4.62-1.332 4.688-5.343.054-3.198-1.085-4.491-2-4.688-.115-.025-.33-.014-.594 0zm5.938 0c-.916.197-2.055 1.49-2 4.688.068 4.01 2.901 5.343 4.656 5.343 1.754 0 4.687-1.387 4.687-5.343 0-3.957-6.428-4.885-7.343-4.688zm-5.938 2.531s.594 6.843-3 4.157c-3.996-2.987 3-4.157 3-4.157zm6.5 0s7.027 1.17 3.031 4.157c-3.593 2.686-3.031-4.157-3.031-4.157z" fill="url(#z)" overflow="visible" transform="matrix(.99844 0 0 .99447 -.063 .18)"/><path d="M53.5 51.563c-.114.024-.395.16-.688.718-.292.558-.556 1.518-.53 3 .03 1.781.635 2.841 1.374 3.5.74.66 1.68.907 2.313.907.623 0 1.618-.27 2.375-.938.757-.669 1.343-1.697 1.343-3.438 0-.728-.266-1.247-.75-1.75-.483-.502-1.191-.933-1.968-1.25a11.174 11.174 0 00-2.282-.656c-.669-.11-1.337-.061-1.187-.093z" style="marker:none" opacity=".5" fill="none" stroke="url(#A)" stroke-width="1.004" overflow="visible" transform="matrix(.99844 0 0 .99447 -.063 .18)"/><path d="M53.469 51.563c-.114.024-.395.16-.688.718-.293.558-.556 1.518-.531 3 .03 1.781.635 2.841 1.375 3.5.74.66 1.679.907 2.313.907.623 0 1.617-.27 2.374-.938.758-.669 1.344-1.697 1.344-3.438 0-.728-.266-1.247-.75-1.75-.484-.502-1.192-.933-1.968-1.25a11.174 11.174 0 00-2.282-.656c-.669-.11-1.337-.061-1.187-.093z" style="marker:none" transform="matrix(-.99844 0 0 .99447 101.048 .193)" opacity=".5" fill="none" stroke="url(#B)" stroke-width="1.004" overflow="visible"/><path style="marker:none" d="M47.406 50.625c-1.845.098-6.781 1.226-6.781 4.688 0 3.956 2.933 5.343 4.688 5.343 1.754 0 4.619-1.332 4.687-5.343.054-3.198-1.085-4.491-2-4.688-.114-.025-.33-.014-.594 0zm5.907 0c-.916.197-2.055 1.49-2 4.688.068 4.01 2.901 5.343 4.656 5.343 1.754 0 4.687-1.387 4.687-5.343 0-3.957-6.428-4.885-7.343-4.688zm-5.907 2.531s.594 6.843-3 4.157c-3.996-2.987 3-4.157 3-4.157zm6.469 0s7.027 1.17 3.031 4.157c-3.593 2.686-3.031-4.157-3.031-4.157z" opacity=".6" fill="none" stroke="#640000" stroke-width="1.004" stroke-linecap="round" stroke-linejoin="round" overflow="visible" transform="matrix(.99844 0 0 .99447 -.063 .18)"/></g></svg>