<svg xmlns="http://www.w3.org/2000/svg" xmlns:xlink="http://www.w3.org/1999/xlink" height="64" width="64"><defs><linearGradient id="d"><stop offset="0" stop-color="#55c1ec"/><stop offset="1" stop-color="#3689e6"/></linearGradient><linearGradient id="e"><stop offset="0" stop-color="#fff"/><stop offset=".063" stop-color="#fff" stop-opacity=".235"/><stop offset=".951" stop-color="#fff" stop-opacity=".157"/><stop offset="1" stop-color="#fff" stop-opacity=".392"/></linearGradient><linearGradient id="a"><stop offset="0" stop-color="#181818"/><stop offset="1" stop-color="#181818" stop-opacity="0"/></linearGradient><linearGradient id="b"><stop offset="0" stop-color="#181818"/><stop offset="1" stop-color="#181818" stop-opacity="0"/></linearGradient><linearGradient id="c"><stop offset="0" stop-color="#181818" stop-opacity="0"/><stop offset=".5" stop-color="#181818"/><stop offset="1" stop-color="#181818" stop-opacity="0"/></linearGradient><linearGradient gradientUnits="userSpaceOnUse" xlink:href="#c" id="k" y2="39.999" x2="25.058" y1="47.028" x1="25.058"/><linearGradient id="f"><stop offset="0" stop-color="#fafafa"/><stop offset="1" stop-color="#e1e1e1"/></linearGradient><linearGradient id="h"><stop offset="0" stop-color="#e9e9e9"/><stop offset="1" stop-color="#fff"/></linearGradient><linearGradient id="g"><stop offset="0" stop-color="#fff"/><stop offset=".508" stop-color="#fff" stop-opacity=".235"/><stop offset=".835" stop-color="#fff" stop-opacity=".157"/><stop offset="1" stop-color="#fff" stop-opacity=".392"/></linearGradient><linearGradient y2="55.053" x2="30.271" y1="10.029" x1="30.271" gradientTransform="matrix(1.11111 0 0 1.25 -3.556 -8)" gradientUnits="userSpaceOnUse" id="n" xlink:href="#d"/><linearGradient y2="43" x2="24" y1="5" x1="24" gradientTransform="matrix(1.43243 0 0 1.43628 -2.378 -2.47)" gradientUnits="userSpaceOnUse" id="m" xlink:href="#e"/><linearGradient y2="44.341" x2="71.204" y1="6.238" x1="71.204" gradientTransform="matrix(-.45946 0 0 .45946 74.959 20.35)" gradientUnits="userSpaceOnUse" id="p" xlink:href="#g"/><linearGradient y2="8.093" x2="38.977" y1="59.968" x1="38.977" gradientTransform="matrix(-.37254 0 0 .37254 53.921 19.334)" gradientUnits="userSpaceOnUse" id="o" xlink:href="#h"/><radialGradient gradientTransform="matrix(2.00378 0 0 1.4 27.988 -17.4)" gradientUnits="userSpaceOnUse" xlink:href="#a" id="i" fy="43.5" fx="4.993" r="2.5" cy="43.5" cx="4.993"/><radialGradient gradientTransform="matrix(2.00378 0 0 1.4 -20.012 -104.4)" gradientUnits="userSpaceOnUse" xlink:href="#b" id="j" fy="43.5" fx="4.993" r="2.5" cy="43.5" cx="4.993"/><radialGradient r="27.5" fy="4.342" fx="32" cy="4.342" cx="32" gradientTransform="matrix(0 2.31034 -2.31034 0 42.031 -69.086)" gradientUnits="userSpaceOnUse" id="l" xlink:href="#f"/></defs><g opacity=".4"><path fill="url(#i)" d="M38 40h5v7h-5z" transform="matrix(1.57895 0 0 .71429 -5.895 27.929)"/><path transform="matrix(-1.57895 0 0 -.71429 -5.895 27.929)" fill="url(#j)" d="M-10-47h5v7h-5z"/><path fill="url(#k)" d="M10 40h28v7H10z" transform="matrix(1.57895 0 0 .71429 -5.895 27.929)"/></g><rect width="54" height="54" rx="2.5" ry="2.5" x="5" y="5" style="marker:none" color="#000" fill="url(#l)" overflow="visible"/><path d="M22 23c-5.54 0-10 4.46-10 10s4.46 10 10 10h20c5.54 0 10-4.46 10-10s-4.46-10-10-10z" style="marker:none" opacity=".2" color="#000" fill="#fff" stroke-width="2" overflow="visible"/><rect width="53" height="53.142" rx="2" ry="2" x="5.5" y="5.429" fill="none" stroke="url(#m)" stroke-linecap="round" stroke-linejoin="round"/><rect width="55" height="55" rx="3" ry="3" x="4.5" y="4.5" style="marker:none" opacity=".3" color="#000" fill="none" stroke="#000" overflow="visible"/><path d="M22 22c-5.54 0-10 4.46-10 10s4.46 10 10 10h20c5.54 0 10-4.46 10-10s-4.46-10-10-10z" style="marker:none" color="#000" fill="url(#n)" stroke-width="2" overflow="visible"/><path d="M22 22c-5.54 0-10 4.46-10 10 0 .168.023.334.031.5A9.96 9.96 0 0122 23h20a9.96 9.96 0 019.969 9.5c.008-.166.031-.332.031-.5 0-5.54-4.46-10-10-10H22z" style="marker:none" opacity=".3" color="#000" fill="#0e4774" stroke-width="2.409" overflow="visible"/><path d="M22.062 23c-5.402 0-9.77 4.194-10.03 9.5A9.96 9.96 0 0022 42h1.062C17.491 42 13 37.986 13 33s4.49-9 10.062-9h17.875C46.51 24 51 28.014 51 33s-4.49 9-10.063 9H42a9.96 9.96 0 009.969-9.5c-.261-5.306-4.629-9.5-10.032-9.5H22.062z" style="marker:none" opacity=".15" color="#000" fill="#0e4774" stroke-width="2.71" overflow="visible"/><path d="M10 10a1 1 0 01-2 0 1 1 0 112 0z" style="marker:none" color="#000" fill="#fff" fill-rule="evenodd" stroke-width=".338" overflow="visible"/><path d="M10 9a1 1 0 01-2 0 1 1 0 112 0z" style="marker:none" opacity=".3" color="#000" fill-rule="evenodd" stroke-width=".338" overflow="visible"/><path d="M56 10a1 1 0 01-2 0 1 1 0 112 0z" style="marker:none" color="#000" fill="#fff" fill-rule="evenodd" stroke-width=".338" overflow="visible"/><path d="M56 9a1 1 0 01-2 0 1 1 0 112 0z" style="marker:none" opacity=".3" color="#000" fill-rule="evenodd" stroke-width=".338" overflow="visible"/><path d="M10 56a1 1 0 01-2 0 1 1 0 112 0z" style="marker:none" color="#000" fill="#fff" fill-rule="evenodd" stroke-width=".338" overflow="visible"/><path d="M10 55a1 1 0 01-2 0 1 1 0 112 0z" style="marker:none" opacity=".3" color="#000" fill-rule="evenodd" stroke-width=".338" overflow="visible"/><path d="M56 56a1 1 0 01-2 0 1 1 0 112 0z" style="marker:none" color="#000" fill="#fff" fill-rule="evenodd" stroke-width=".338" overflow="visible"/><path d="M56 55a1 1 0 01-2 0 1 1 0 112 0z" style="marker:none" opacity=".3" color="#000" fill-rule="evenodd" stroke-width=".338" overflow="visible"/><path style="marker:none" d="M42 22.5c5.793 0 10.5 4.706 10.5 10.5S47.793 43.5 42 43.5c-5.794 0-10.5-4.706-10.5-10.5S36.206 22.5 42 22.5z" opacity=".07" color="#000" stroke-width="2" overflow="visible"/><path style="marker:none" d="M42 23.5c5.242 0 9.5 4.258 9.5 9.5s-4.258 9.5-9.5 9.5-9.5-4.258-9.5-9.5 4.258-9.5 9.5-9.5z" color="#000" stroke-width="2" overflow="visible" opacity=".15"/><path style="marker:none" d="M42 22.5c5.242 0 9.5 4.258 9.5 9.5s-4.258 9.5-9.5 9.5-9.5-4.258-9.5-9.5 4.258-9.5 9.5-9.5z" color="#000" fill="url(#o)" overflow="visible"/><path style="marker:none" d="M33.5 32a8.5 8.5 0 1017 0 8.5 8.5 0 00-17 0h0z" color="#000" fill="none" stroke="url(#p)" stroke-linecap="round" stroke-linejoin="round" overflow="visible"/><path style="marker:none" d="M42 22.5c5.242 0 9.5 4.258 9.5 9.5s-4.258 9.5-9.5 9.5-9.5-4.258-9.5-9.5 4.258-9.5 9.5-9.5z" opacity=".5" color="#000" fill="none" stroke="#656565" stroke-linecap="round" stroke-linejoin="round" overflow="visible"/></svg>