<svg xmlns="http://www.w3.org/2000/svg" xmlns:xlink="http://www.w3.org/1999/xlink" height="64" width="64"><defs><linearGradient id="d"><stop offset="0" stop-color="#452981"/><stop offset=".545" stop-color="#7239b3"/><stop offset="1" stop-color="#7239b3"/></linearGradient><linearGradient id="a"><stop offset="0"/><stop stop-opacity="0" offset="1"/></linearGradient><linearGradient id="b"><stop stop-color="#181818" offset="0"/><stop stop-color="#181818" stop-opacity="0" offset="1"/></linearGradient><linearGradient id="m" y2="230.24" gradientUnits="userSpaceOnUse" x2="633.31" gradientTransform="matrix(6.0005 0 0 6.0034 -3752.2 -1323.2)" y1="226.4" x1="633.31"><stop stop-color="#fff" offset="0"/><stop stop-color="#fff" stop-opacity=".235" offset=".1"/><stop stop-color="#fff" stop-opacity=".157" offset=".918"/><stop stop-color="#fff" stop-opacity=".392" offset="1"/></linearGradient><linearGradient id="k" y2="10" gradientUnits="userSpaceOnUse" x2="8" gradientTransform="matrix(5 0 0 5.1216 7 -14.763)" y1="15" x1="8"><stop stop-color="#ae6a37" offset="0"/><stop stop-color="#d28e5b" offset="1"/></linearGradient><linearGradient id="l" y2="15" gradientUnits="userSpaceOnUse" x2="9" gradientTransform="matrix(5 0 0 5.1216 7 -14.763)" y1="10" x1="9"><stop stop-color="#492714" stop-opacity=".625" offset="0"/><stop stop-color="#6a3f1f" stop-opacity=".77" offset="1"/></linearGradient><linearGradient id="n" y2="34" gradientUnits="userSpaceOnUse" x2="23" gradientTransform="matrix(0 1.5455 -1.6154 0 76.923 14.727)" y1="34" x1="11"><stop stop-color="#fff" offset="0"/><stop stop-color="#fff" stop-opacity=".235" offset=".063"/><stop stop-color="#fff" stop-opacity=".157" offset=".951"/><stop stop-color="#fff" stop-opacity=".392" offset="1"/></linearGradient><linearGradient id="j" y2="38" gradientUnits="userSpaceOnUse" x2="20" gradientTransform="matrix(1.5333 0 0 1.4615 -4.067 -7.23)" y1="27" x1="20"><stop stop-color="#64baff" offset="0"/><stop stop-color="#8cd5ff" offset="1"/></linearGradient><linearGradient id="i" y2="43" gradientUnits="userSpaceOnUse" x2="24" gradientTransform="matrix(1.4054 0 0 1.3243 -1.23 2.288)" y1="5" x1="24"><stop stop-color="#fff" offset="0"/><stop stop-color="#fff" stop-opacity=".235" offset=".063"/><stop stop-color="#fff" stop-opacity=".157" offset=".951"/><stop stop-color="#fff" stop-opacity=".392" offset="1"/></linearGradient><linearGradient id="g" y2="39.999" gradientUnits="userSpaceOnUse" x2="25.058" gradientTransform="matrix(.95477 0 0 1 .452 0)" y1="47.028" x1="25.058"><stop stop-color="#181818" stop-opacity="0" offset="0"/><stop stop-color="#181818" offset=".5"/><stop stop-color="#181818" stop-opacity="0" offset="1"/></linearGradient><linearGradient id="o" y2="33" gradientUnits="userSpaceOnUse" x2="32" gradientTransform="matrix(.96364 0 0 1 1.182 -1)" y1="18" x1="32"><stop offset="0"/><stop stop-opacity="0" offset="1"/></linearGradient><linearGradient id="c" y2="18" gradientUnits="userSpaceOnUse" x2="9" gradientTransform="matrix(1.1113 0 0 1.1062 -.966 -1.59)" y1="21" x1="9"><stop stop-color="#fff" offset="0"/><stop stop-color="#fff" stop-opacity="0" offset="1"/></linearGradient><linearGradient id="B" y2="8" gradientUnits="userSpaceOnUse" x2="33" y1="14" x1="33"><stop stop-color="#fff" offset="0"/><stop stop-color="#fff" stop-opacity="0" offset="1"/></linearGradient><linearGradient id="A" y2="8.773" gradientUnits="userSpaceOnUse" x2="62.436" y1="13.635" x1="33.807"><stop stop-color="#fff" offset="0"/><stop stop-color="#fff" stop-opacity="0" offset="1"/></linearGradient><linearGradient xlink:href="#c" id="y" gradientUnits="userSpaceOnUse" gradientTransform="matrix(1.1113 0 0 1.1062 -.966 -1.59)" x1="9" y1="21" x2="9" y2="18"/><linearGradient gradientUnits="userSpaceOnUse" y2="4" x2="8.947" y1="26" x1="8.947" id="x" xlink:href="#d"/><radialGradient id="v" xlink:href="#a" gradientUnits="userSpaceOnUse" cy="20" cx="12.5" gradientTransform="matrix(1 0 0 .66667 0 6.667)" r="4.5"/><radialGradient id="w" xlink:href="#a" gradientUnits="userSpaceOnUse" cy="20" cx="12.5" gradientTransform="matrix(.83333 0 0 .55556 2.333 8.389)" r="4.5"/><radialGradient id="r" xlink:href="#a" gradientUnits="userSpaceOnUse" cy="20" cx="12.5" gradientTransform="matrix(1 0 0 .66667 8 6.667)" r="4.5"/><radialGradient id="s" xlink:href="#a" gradientUnits="userSpaceOnUse" cy="20" cx="12.5" gradientTransform="matrix(.83333 0 0 .55556 10.333 8.389)" r="4.5"/><radialGradient id="p" xlink:href="#a" gradientUnits="userSpaceOnUse" cy="20" cx="12.5" gradientTransform="matrix(1 0 0 .66667 16 6.667)" r="4.5"/><radialGradient id="q" xlink:href="#a" gradientUnits="userSpaceOnUse" cy="20" cx="12.5" gradientTransform="matrix(.83333 0 0 .55556 18.333 8.389)" r="4.5"/><radialGradient id="t" xlink:href="#a" gradientUnits="userSpaceOnUse" cy="20" cx="12.5" gradientTransform="matrix(1 0 0 .66667 24 6.667)" r="4.5"/><radialGradient id="u" xlink:href="#a" gradientUnits="userSpaceOnUse" cy="20" cx="12.5" gradientTransform="matrix(.83333 0 0 .55556 26.333 8.389)" r="4.5"/><radialGradient id="h" gradientUnits="userSpaceOnUse" cy="4.342" cx="32" gradientTransform="matrix(0 2.1392 -2.3523 0 41.714 -59.598)" r="27.5"><stop stop-color="#fafafa" offset="0"/><stop stop-color="#e1e1e1" offset="1"/></radialGradient><radialGradient id="e" xlink:href="#b" gradientUnits="userSpaceOnUse" cy="43.5" cx="4.993" gradientTransform="matrix(2.0038 0 0 1.4 26.721 -17.4)" r="2.5"/><radialGradient id="f" xlink:href="#b" gradientUnits="userSpaceOnUse" cy="43.5" cx="4.993" gradientTransform="matrix(2.0038 0 0 1.4 -20.012 -104.4)" r="2.5"/></defs><g opacity=".4"><path fill="url(#e)" d="M36.733 40h5v7h-5z" transform="matrix(1.579 0 0 .71429 -4.895 27.929)"/><path transform="matrix(-1.579 0 0 -.71429 -4.895 27.929)" fill="url(#f)" d="M-10-47h5v7h-5z"/><path fill="url(#g)" d="M10 40h26.734v7H10z" transform="matrix(1.579 0 0 .71429 -4.895 27.929)"/></g><path d="M8.51 9a2.495 2.495 0 00-2.5 2.5v45c0 1.385 1.115 2.5 2.5 2.5h47.98c1.385 0 2.5-1.115 2.5-2.5v-45c0-1.385-1.115-2.5-2.5-2.5zm2.99 22.5h22v19h-22z" color="#000" fill="url(#h)"/><rect x="6.5" y="9.571" width="52" height="49" ry="2" rx="2" fill="none" stroke="url(#i)" stroke-linecap="round" stroke-linejoin="round"/><rect x="5.5" y="8.5" width="54" height="51" ry="3" rx="3" color="#000" opacity=".3" fill="none" stroke="#000"/><path d="M11.5 31.5h22v19h-22z" style="isolation:auto;mix-blend-mode:normal;solid-color:#000" color="#000" opacity=".9" fill="url(#j)" fill-rule="evenodd"/><path d="M13.04 38.081l6.128-6M16.104 48.581l6.128-6M22.233 38.081l6.128-6" opacity=".2" fill="none" stroke="#fff" stroke-linecap="round"/><path d="M47 35.47c-4.155 0-7.5 3.35-7.5 7.605V59.5h15V43.075c0-4.256-3.345-7.605-7.5-7.605z" color="#000" fill="url(#k)" stroke="url(#l)" stroke-linejoin="round"/><path d="M46.954 36.47c-3.593 0-6.492 3.081-6.485 6.55l.029 15.48h12.97l-.029-15.48c-.007-3.563-2.892-6.55-6.485-6.55z" color="#000" opacity=".5" fill="none" stroke="url(#m)"/><path d="M52 49.494c0 2.009-3 2.009-3 0s3-2.009 3 0z" color="#000" opacity=".2" fill="#fff"/><path d="M52 48.494c0 2.009-3 2.009-3 0s3-2.009 3 0z" color="#000" fill="#620"/><path d="M32.5 32.5v17h-20v-17z" style="isolation:auto;mix-blend-mode:normal;solid-color:#000" color="#000" fill="none" stroke="url(#n)" stroke-linecap="round" stroke-linejoin="round" stroke-opacity=".625"/><path d="M11.511 51.5h21.986" opacity=".4" fill="none" stroke="#fff" stroke-linecap="round"/><path d="M26.829 44.081l6.128-6" opacity=".2" fill="none" stroke="#fff" stroke-linecap="round"/><path d="M11.5 31.5h22v19h-22z" style="isolation:auto;mix-blend-mode:normal;solid-color:#000" color="#000" fill="none" stroke="#64baff" stroke-linecap="round" stroke-linejoin="round"/><rect x="6" y="16" width="53" height="16" ry="0" rx="0" opacity=".2" fill="url(#o)"/><g transform="matrix(1.5 0 0 1.5063 -4.22 -6.266)" fill-rule="evenodd" stroke-width=".665" color="#000"><ellipse cx="28.5" cy="20" ry="3" rx="4.5" style="isolation:auto;mix-blend-mode:normal;solid-color:#000" opacity=".2" fill="url(#p)"/><ellipse cx="28.75" cy="19.5" ry="2.5" rx="3.75" style="isolation:auto;mix-blend-mode:normal;solid-color:#000" opacity=".2" fill="url(#q)"/><ellipse cx="20.5" cy="20" ry="3" rx="4.5" style="isolation:auto;mix-blend-mode:normal;solid-color:#000" opacity=".2" fill="url(#r)"/><ellipse cx="20.75" cy="19.5" ry="2.5" rx="3.75" style="isolation:auto;mix-blend-mode:normal;solid-color:#000" opacity=".2" fill="url(#s)"/><ellipse cx="36.5" cy="20" ry="3" rx="4.5" style="isolation:auto;mix-blend-mode:normal;solid-color:#000" opacity=".2" fill="url(#t)"/><ellipse cx="36.75" cy="19.5" ry="2.5" rx="3.75" style="isolation:auto;mix-blend-mode:normal;solid-color:#000" opacity=".2" fill="url(#u)"/><ellipse cx="12.5" cy="20" ry="3" rx="4.5" style="isolation:auto;mix-blend-mode:normal;solid-color:#000" opacity=".2" fill="url(#v)"/><ellipse cx="12.75" cy="19.5" ry="2.5" rx="3.75" style="isolation:auto;mix-blend-mode:normal;solid-color:#000" opacity=".2" fill="url(#w)"/></g><path d="M49.78 3.525l.75 10.928v6.061s.026 6.03-6 6.03c-5.974 0-6-6.03-6-6.03V3.525c4.332.039 11.25 0 11.25 0zM26.53 3.525v16.99s.026 6.03-6 6.03c-5.974 0-6-6.03-6-6.03v-6.062l.75-10.928c4.332.039 11.25 0 11.25 0z" fill="#eaeaea" fill-rule="evenodd" stroke="#000" stroke-opacity=".363"/><path style="isolation:auto;mix-blend-mode:normal;solid-color:#000;solid-opacity:1;filter-blend-mode:normal;filter-gaussianBlur-deviation:0" d="M7.03 3.525s-2.464.048-3 3.012l-1.5 7.916v6.06s-.027 6.032 6 6.032c5.973 0 6-6.031 6-6.031v-6.06l.75-10.929H7.03zm19.5 0v16.989s.025 6.03 6 6.03c6.026 0 6-6.03 6-6.03V3.525s-7.668.039-12 0zm23.25 0l.75 10.928v6.06s.025 6.032 6 6.032c6.026 0 6-6.031 6-6.031v-5.967l-1.5-8.01c-.532-2.965-3-3.012-3-3.012h-8.25z" fill="url(#x)" stroke="#05020d" stroke-opacity=".498" color="#000" overflow="visible" stroke-linecap="round" stroke-linejoin="round" stroke-dashoffset="20"/><g transform="matrix(1.5 0 0 1.5063 -4.22 -6.266)" stroke-width=".665"><ellipse cx="8.48" cy="17.769" ry="3.319" rx="3.334" style="isolation:auto;mix-blend-mode:normal;solid-color:#000" id="z" color="#000" opacity=".4" fill="none" stroke="url(#y)" stroke-width=".665" stroke-linecap="round" stroke-linejoin="round" stroke-opacity=".392" color-rendering="auto" image-rendering="auto" shape-rendering="auto"/><use width="100%" height="100%" transform="translate(8)" xlink:href="#z"/><use width="100%" height="100%" transform="translate(16)" xlink:href="#z"/><use width="100%" height="100%" transform="translate(24)" xlink:href="#z"/><use width="100%" height="100%" transform="translate(32)" xlink:href="#z"/></g><path d="M58.125 3.5l-50.5.125s-2.846-.4-3.596 2.912l-1.406 7.416 59.813.094-1.406-7.51C60.592 3.725 58.125 3.5 58.125 3.5z" opacity=".1" fill="url(#A)" fill-rule="evenodd"/><path d="M5 6l-1.47 8.453 57.97.094L60 6" opacity=".2" fill="none" stroke="url(#B)" stroke-linejoin="round"/><path d="M6 4.5h53" opacity=".2" fill="none" stroke="#fff" stroke-linecap="round"/><path style="isolation:auto;mix-blend-mode:normal;solid-color:#000" d="M11.5 31.5h22v19h-22z" color="#000" fill="none" stroke="#000" stroke-linecap="round" stroke-linejoin="round" opacity=".2"/></svg>