<svg xmlns="http://www.w3.org/2000/svg" xmlns:xlink="http://www.w3.org/1999/xlink" width="32" height="32"><defs><linearGradient id="a"><stop offset="0" stop-color="#fff"/><stop offset=".54" stop-color="#afaba5"/><stop offset=".62" stop-color="#837874"/><stop offset="1" stop-color="#b4b2aa"/></linearGradient><linearGradient x1="71.204" y1="15.369" x2="71.204" y2="40.496" id="g" xlink:href="#b" gradientUnits="userSpaceOnUse" gradientTransform="matrix(1.1022 0 0 1.1022 -63.553 -14.715)"/><linearGradient id="b"><stop offset="0" stop-color="#fff"/><stop offset=".424" stop-color="#fff" stop-opacity=".235"/><stop offset=".821" stop-color="#fff" stop-opacity=".157"/><stop offset="1" stop-color="#fff" stop-opacity=".392"/></linearGradient><linearGradient id="c"><stop offset="0" stop-color="#f4f4f4"/><stop offset="1" stop-color="#dadada"/></linearGradient><linearGradient id="d"><stop offset="0" stop-color="#3d3d3d"/><stop offset=".5" stop-color="#686868" stop-opacity=".498"/><stop offset="1" stop-color="#686868" stop-opacity="0"/></linearGradient><radialGradient cx="16" cy="15.377" r=".626" fx="16" fy="15.377" id="h" xlink:href="#a" gradientUnits="userSpaceOnUse" gradientTransform="matrix(0 1.91316 -1.91317 0 45.42 -15.233)"/><radialGradient cx="15.026" cy="8.626" r="20" fx=".304" fy="8.626" id="f" xlink:href="#c" gradientUnits="userSpaceOnUse" gradientTransform="matrix(0 .78038 -.73523 0 22.213 1.684)"/><radialGradient cx="99.157" cy="186.171" r="62.769" fx="99.157" fy="186.171" id="e" xlink:href="#d" gradientUnits="userSpaceOnUse" gradientTransform="matrix(.17525 0 0 .05576 -1.377 18.12)"/></defs><path d="M27 28.5a11 3.5 0 11-22 0 11 3.5 0 1122 0z" fill="url(#e)"/><path d="M16 1.5C8 1.5 1.5 8 1.5 16S8 30.5 16 30.5 30.5 24 30.5 16 24 1.5 16 1.5z" style="marker:none" color="#000" fill="url(#f)" overflow="visible"/><path d="M16 1.5C8 1.5 1.5 8 1.5 16S8 30.5 16 30.5 30.5 24 30.5 16 24 1.5 16 1.5z" style="marker:none" opacity=".4" color="#000" fill="none" stroke="#000" stroke-linecap="round" stroke-linejoin="round" overflow="visible"/><path d="M15.266 16.837l7.971-9.13" fill="none" stroke="#333" stroke-width=".6" stroke-linecap="round"/><path d="M17.171 16.034l-6.983-.455" fill="#00f" stroke="#333" stroke-width=".6" stroke-linecap="round"/><path d="M15.168 13.86l3.78 10.254" fill="none" stroke="#eb5c3a" stroke-width=".6" stroke-linecap="round"/><path d="M16.906 3.156c-.125 0-.242.028-.343.063-.1.032-.176.05-.25.094-.072.042-.143.113-.188.156-.045.042-.078.046-.094.062l.188.219c.018-.024.059-.056.093-.094.038-.04.072-.09.125-.125a.88.88 0 01.188-.094.748.748 0 01.25-.03.61.61 0 01.219.03.428.428 0 01.156.094c.045.04.072.106.094.156.024.051.031.075.031.126 0 .08-.015.16-.063.218a.79.79 0 01-.187.157 1.562 1.562 0 01-.219.125c-.082.037-.178.087-.25.125a1.339 1.339 0 00-.312.218c-.086.08-.168.162-.219.25a.97.97 0 00-.094.282A2.001 2.001 0 0016 5.5h1.719v-.25h-1.407c.011-.083.039-.155.063-.219a.659.659 0 01.125-.187.954.954 0 01.188-.157c.08-.05.192-.102.312-.156.05-.024.11-.056.188-.093.08-.038.144-.098.218-.157.075-.058.137-.107.188-.187a.607.607 0 00.093-.313c0-.085-.027-.144-.062-.219a.66.66 0 00-.156-.218.71.71 0 00-.25-.125.869.869 0 00-.313-.063zm-1.968.031a.578.578 0 01-.094.094c-.046.04-.09.08-.156.125-.065.046-.145.09-.22.125-.071.035-.125.063-.187.063v.25c.05 0 .09-.01.156-.031a1.588 1.588 0 00.376-.188c.05-.037.1-.062.124-.094V5.25h-.562v.25h1.344v-.25h-.5V3.187h-.281zm-11 11.376c-.142 0-.284.011-.407.062a1 1 0 00-.312.219 1.046 1.046 0 00-.219.312.918.918 0 00-.063.375c0 .134.012.258.063.375.05.118.13.225.219.313a.996.996 0 00.312.187c.12.048.24.094.375.094a.823.823 0 00.469-.156.766.766 0 00.313-.375c0 .197-.023.376-.063.531a1.151 1.151 0 01-.156.375.746.746 0 01-.25.25.605.605 0 01-.313.094.71.71 0 01-.406-.125.693.693 0 01-.25-.344l-.188.188a.867.867 0 00.344.375c.15.093.314.124.5.125.158 0 .31-.025.438-.094a.835.835 0 00.312-.313c.094-.141.168-.318.219-.531.05-.216.094-.462.094-.75a1.53 1.53 0 00-.094-.5 1.08 1.08 0 00-.219-.375.89.89 0 00-.312-.25.965.965 0 00-.407-.063zm23.843 0a1.099 1.099 0 00-.531.124c-.075.04-.129.098-.188.157-.058.056-.124.118-.156.187l.188.156a.625.625 0 01.25-.28.782.782 0 01.406-.095c.083 0 .18.01.25.032a.517.517 0 01.188.094c.053.04.095.094.125.156.029.058.03.107.03.187a.472.472 0 01-.155.375.688.688 0 01-.47.156h-.124v.22h.093c.227 0 .412.049.532.155.12.107.187.254.187.438a.568.568 0 01-.187.438c-.115.098-.269.125-.469.125-.173 0-.323-.025-.438-.094a.637.637 0 01-.25-.282l-.187.188c.077.144.192.233.344.313.152.082.328.124.531.125.139 0 .263-.023.375-.063a.74.74 0 00.281-.156.645.645 0 00.188-.25.867.867 0 00.093-.344.697.697 0 00-.593-.719.566.566 0 00.218-.062.77.77 0 00.188-.156.669.669 0 00.125-.406.752.752 0 00-.063-.313.642.642 0 00-.187-.219.724.724 0 00-.25-.156c-.101-.035-.221-.031-.344-.031zm-23.843.218c.1 0 .193.023.28.063a.61.61 0 01.22.156c.069.067.147.16.187.25a.677.677 0 01-.156.781.918.918 0 01-.25.188c-.09.037-.18.031-.282.031-.1 0-.19.006-.28-.031a.96.96 0 01-.25-.188.713.713 0 01-.22-.5.71.71 0 01.063-.281c.04-.09.09-.183.156-.25a.84.84 0 01.25-.156c.09-.04.18-.063.281-.063zM16.03 25.875a.937.937 0 00-.437.125.855.855 0 00-.313.313c-.09.14-.168.315-.219.53-.05.214-.062.463-.062.75 0 .185.015.351.063.5.05.147.128.274.218.376.09.101.187.162.313.218.125.054.257.094.406.094.141 0 .284-.012.406-.062a.97.97 0 00.313-.219.987.987 0 00.218-.313.882.882 0 00.063-.375.926.926 0 00-.063-.375.881.881 0 00-.531-.5.938.938 0 00-.375-.093.83.83 0 00-.468.156.78.78 0 00-.313.375c0-.195.025-.377.063-.531.04-.155.09-.302.156-.407a.67.67 0 01.25-.218.605.605 0 01.312-.094.71.71 0 01.407.125c.122.08.227.177.28.313l.157-.157a.867.867 0 00-.344-.375.931.931 0 00-.5-.156zM16 27.063c.099 0 .19.022.281.062.09.037.184.09.25.156.067.067.116.16.157.25a.668.668 0 010 .563.634.634 0 01-.157.218.918.918 0 01-.25.188c-.088.037-.18.031-.281.031-.101 0-.19.006-.281-.031-.088-.04-.15-.12-.219-.188-.067-.069-.148-.13-.188-.218-.04-.088-.03-.18-.03-.282 0-.1-.007-.193.03-.28.04-.091.09-.184.157-.25a.807.807 0 01.25-.157c.09-.04.18-.063.281-.063z" style="line-height:125%;-inkscape-font-specification:Raleway" font-size="4" font-weight="400" letter-spacing="0" word-spacing="0" opacity=".4" font-family="Raleway"/><path d="M29.5 16c0 7.456-6.044 13.5-13.5 13.5S2.5 23.456 2.5 16 8.544 2.5 16 2.5 29.5 8.544 29.5 16z" style="marker:none" color="#000" fill="none" stroke="url(#g)" stroke-linecap="round" stroke-linejoin="round" overflow="visible"/><path d="M16.626 16a.626.626 0 11-1.252 0 .626.626 0 111.252 0z" transform="matrix(.83572 0 0 .83572 2.628 2.628)" style="marker:none" color="#000" fill="url(#h)" stroke-width="1.252" overflow="visible"/></svg>