<svg xmlns="http://www.w3.org/2000/svg" xmlns:xlink="http://www.w3.org/1999/xlink" width="64" height="64"><defs><linearGradient id="d"><stop offset="0" stop-color="#fff"/><stop offset=".063" stop-color="#fff" stop-opacity=".235"/><stop offset=".951" stop-color="#fff" stop-opacity=".157"/><stop offset="1" stop-color="#fff" stop-opacity=".392"/></linearGradient><linearGradient id="a"><stop offset="0" stop-color="#181818"/><stop offset="1" stop-color="#181818" stop-opacity="0"/></linearGradient><linearGradient id="b"><stop offset="0" stop-color="#181818"/><stop offset="1" stop-color="#181818" stop-opacity="0"/></linearGradient><linearGradient id="c"><stop offset="0" stop-color="#181818" stop-opacity="0"/><stop offset=".5" stop-color="#181818"/><stop offset="1" stop-color="#181818" stop-opacity="0"/></linearGradient><linearGradient x1="25.058" y1="47.028" x2="25.058" y2="39.999" id="i" xlink:href="#c" gradientUnits="userSpaceOnUse"/><linearGradient id="f"><stop offset="0" stop-color="#fff"/><stop offset="1" stop-color="#e6f4f8"/></linearGradient><linearGradient xlink:href="#d" id="k" gradientUnits="userSpaceOnUse" gradientTransform="matrix(1.43243 0 0 1.43628 -2.378 -2.47)" x1="24" y1="5" x2="24" y2="43"/><linearGradient id="e"><stop offset="0" stop-color="#90dbec"/><stop offset=".262" stop-color="#55c1ec"/><stop offset=".705" stop-color="#3689e6"/><stop offset="1" stop-color="#2b63a0"/></linearGradient><linearGradient xlink:href="#f" id="l" gradientUnits="userSpaceOnUse" gradientTransform="matrix(.99527 0 0 .94788 -130.077 -.52)" x1="167.983" y1="13.399" x2="167.983" y2="54.78"/><radialGradient cx="4.993" cy="43.5" r="2.5" fx="4.993" fy="43.5" id="g" xlink:href="#a" gradientUnits="userSpaceOnUse" gradientTransform="matrix(2.00378 0 0 1.4 27.988 -17.4)"/><radialGradient cx="4.993" cy="43.5" r="2.5" fx="4.993" fy="43.5" id="h" xlink:href="#b" gradientUnits="userSpaceOnUse" gradientTransform="matrix(2.00378 0 0 1.4 -20.012 -104.4)"/><radialGradient xlink:href="#e" id="j" gradientUnits="userSpaceOnUse" gradientTransform="matrix(0 8.46163 -16.44353 0 196.902 -80.464)" cx="7.739" cy="9.957" fx="7.209" fy="9.957" r="12.672"/></defs><g opacity=".6"><path fill="url(#g)" d="M38 40h5v7h-5z" transform="matrix(1.57895 0 0 .71429 -5.895 27.929)"/><path transform="matrix(-1.57895 0 0 -.71429 -5.895 27.929)" fill="url(#h)" d="M-10-47h5v7h-5z"/><path fill="url(#i)" d="M10 40h28v7H10z" transform="matrix(1.57895 0 0 .71429 -5.895 27.929)"/></g><rect style="marker:none" y="4.5" x="4.5" ry="3" rx="3" height="55" width="55" color="#000" fill="url(#j)" overflow="visible"/><rect y="5.429" x="5.5" ry="2" rx="2" height="53.142" width="53" opacity=".5" fill="none" stroke="url(#k)" stroke-linecap="round" stroke-linejoin="round"/><rect style="marker:none" y="4.5" x="4.5" ry="3" rx="3" height="55" width="55" opacity=".4" color="#000" fill="none" stroke="#003164" stroke-linecap="round" stroke-linejoin="round" overflow="visible"/><path style="marker:none" d="M11.406 12C10.106 12 9 13.031 9 14.344v13.312C9 28.97 10.106 30 11.406 30h18.188c1.3 0 2.406-1.031 2.406-2.344V14.344C32 13.03 30.894 12 29.594 12zm25.813 2c-.69 0-1.284.367-1.657.844-.372.477-.562 1.073-.562 1.719v13.875c0 .645.19 1.241.563 1.718.372.477.966.844 1.656.844H52.78c.69 0 1.284-.367 1.657-.844.372-.477.562-1.073.562-1.718V16.563c0-.646-.19-1.242-.563-1.72-.372-.476-.966-.843-1.656-.843zM20.656 35C19.22 35 18 36.131 18 37.563v13.874C18 52.87 19.219 54 20.656 54h21.688C43.78 54 45 52.869 45 51.437V37.563C45 36.13 43.781 35 42.344 35z" opacity=".15" color="#000" fill="#0974ae" overflow="visible"/><path style="marker:none" d="M11.406 13c-.775 0-1.406.605-1.406 1.344v13.312c0 .739.63 1.344 1.406 1.344h18.188c.775 0 1.406-.605 1.406-1.344V14.344c0-.739-.63-1.344-1.406-1.344H11.406zm25.813 2c-.665 0-1.219.706-1.219 1.563v13.875c0 .856.554 1.562 1.219 1.562H52.78c.665 0 1.219-.706 1.219-1.563V16.563c0-.856-.554-1.562-1.219-1.562H37.22zM20.656 36c-.923 0-1.656.706-1.656 1.563v13.874c0 .857.733 1.563 1.656 1.563h21.688c.923 0 1.656-.706 1.656-1.563V37.563c0-.857-.733-1.563-1.656-1.563H20.656z" opacity=".3" color="#000" fill="#0935ae" overflow="visible"/><path style="marker:none" d="M11.406 12c-.775 0-1.406.605-1.406 1.344v13.312c0 .739.63 1.344 1.406 1.344h18.188c.775 0 1.406-.605 1.406-1.344V13.344c0-.739-.63-1.344-1.406-1.344H11.406zm25.813 2c-.665 0-1.219.706-1.219 1.563v13.874c0 .857.554 1.563 1.219 1.563H52.78c.665 0 1.219-.706 1.219-1.563V15.563c0-.856-.554-1.562-1.219-1.562H37.22zM20.656 35c-.923 0-1.656.706-1.656 1.563v13.874c0 .857.733 1.563 1.656 1.563h21.688c.923 0 1.656-.706 1.656-1.563V36.563c0-.857-.733-1.563-1.656-1.563H20.656z" color="#000" fill="url(#l)" overflow="visible"/></svg>