<svg xmlns="http://www.w3.org/2000/svg" xmlns:xlink="http://www.w3.org/1999/xlink" height="32" width="32"><defs><linearGradient id="e"><stop offset="0" stop-color="#fafafa"/><stop offset="1" stop-color="#d4d4d4"/></linearGradient><linearGradient id="d"><stop offset="0" stop-color="#fff"/><stop offset=".04" stop-color="#fff" stop-opacity=".235"/><stop offset=".958" stop-color="#fff" stop-opacity=".157"/><stop offset="1" stop-color="#fff" stop-opacity=".392"/></linearGradient><linearGradient id="a"><stop offset="0" stop-color="#181818"/><stop offset="1" stop-color="#181818" stop-opacity="0"/></linearGradient><linearGradient id="b"><stop offset="0" stop-color="#181818"/><stop offset="1" stop-color="#181818" stop-opacity="0"/></linearGradient><linearGradient gradientUnits="userSpaceOnUse" xlink:href="#c" id="h" y2="39.999" x2="25.058" y1="47.028" x1="25.058"/><linearGradient id="c"><stop offset="0" stop-color="#181818" stop-opacity="0"/><stop offset=".5" stop-color="#181818"/><stop offset="1" stop-color="#181818" stop-opacity="0"/></linearGradient><linearGradient gradientTransform="matrix(.67568 0 0 .67568 -.216 -.216)" gradientUnits="userSpaceOnUse" xlink:href="#d" id="j" y2="41.76" x2="24" y1="6.24" x1="24"/><linearGradient xlink:href="#e" id="i" x1="14.33" y1="32.022" x2="14.33" y2="-.07" gradientUnits="userSpaceOnUse" gradientTransform="translate(0 -32)"/><radialGradient gradientTransform="matrix(2.00378 0 0 1.4 27.988 -17.4)" gradientUnits="userSpaceOnUse" xlink:href="#a" id="f" fy="43.5" fx="4.993" r="2.5" cy="43.5" cx="4.993"/><radialGradient gradientTransform="matrix(2.00378 0 0 1.4 -20.012 -104.4)" gradientUnits="userSpaceOnUse" xlink:href="#b" id="g" fy="43.5" fx="4.993" r="2.5" cy="43.5" cx="4.993"/></defs><g opacity=".4"><path fill="url(#f)" d="M38 40h5v7h-5z" transform="matrix(.73684 0 0 .57143 -1.684 4.143)"/><path transform="matrix(-.73684 0 0 -.57143 -1.684 4.143)" fill="url(#g)" d="M-10-47h5v7h-5z"/><path fill="url(#h)" d="M10 40h28v7H10z" transform="matrix(.73684 0 0 .57143 -1.684 4.143)"/></g><rect style="marker:none" y="-29" x="3" ry="1.615" rx="1.615" height="26" width="26" transform="scale(1 -1)" color="#000" overflow="visible" fill="url(#i)"/><rect style="marker:none" y="2.5" x="2.5" ry="2.16" rx="2.16" height="27" width="27" color="#000" overflow="visible" fill="none" stroke="#555761" stroke-linecap="round" stroke-linejoin="round" opacity=".5"/><rect y="3.5" x="3.5" ry="1.19" rx="1.087" height="25" width="25" fill="none" stroke="url(#j)" stroke-linecap="round" stroke-linejoin="round"/><path d="M16.009 14.496a2.509 2.509 0 00-2.5 2.5v4c0 1.37 1.123 2.5 2.5 2.5 1.376 0 2.5-1.13 2.5-2.5v-4c0-1.372-1.124-2.5-2.5-2.5zm0 1.5c.552 0 1 .4 1 1 0 .5-.448 1-1 1s-1-.5-1-1c0-.6.448-1 1-1zm0 3c.552 0 1 .4 1 1v1c0 .5-.448 1-1 1s-1-.5-1-1v-1c0-.6.448-1 1-1z" opacity=".2" stroke="#000"/><path d="M14.009 2.5v12.496c0 1.1.895 2 2 2s2-.9 2-2V2.5z" opacity=".5"/><path d="M16 3v1h1V3zm0 1h-1v1h1zm0 1v1h1V5zm0 1h-1v1h1zm0 1v1h1V7zm0 1h-1v1h1zm0 1v1h1V9zm0 1h-1v1h1zm0 1v1h1v-1zm0 1h-1v1h1zm0 1v1h1v-1zm0 1h-1v1h1zm0 1v1c.552 0 1-.5 1-1z" fill="#999"/><path d="M15.009 5.996v-1h1v1zm0-2v-1h1v1z" fill="#ecf0f1"/><path d="M15.009 4.996v1h1v-1zm0 2v1h1v-1zm0 2v1h1v-1zm0 2v1h1v-1zm0 2v1h1v-1zm0 2c0 .5.448 1 1 1v-1z" fill="#ecf0f1"/><path d="M16.009 13.496a2.509 2.509 0 00-2.5 2.5v4c0 1.37 1.123 2.5 2.5 2.5 1.376 0 2.5-1.13 2.5-2.5v-4c0-1.372-1.124-2.5-2.5-2.5zm0 1.5c.552 0 1 .4 1 1 0 .5-.448 1-1 1s-1-.5-1-1c0-.6.448-1 1-1zm0 3c.552 0 1 .4 1 1v1c0 .5-.448 1-1 1s-1-.5-1-1v-1c0-.6.448-1 1-1z" fill="#ecf0f1" stroke="#000" stroke-opacity=".463"/></svg>