<svg xmlns="http://www.w3.org/2000/svg" xmlns:xlink="http://www.w3.org/1999/xlink" width="32" height="32"><defs><linearGradient id="f"><stop offset="0" stop-color="#ed5353"/><stop offset="1" stop-color="#c6262e"/></linearGradient><linearGradient x1="24" y1="6.24" x2="24" y2="41.76" id="l" xlink:href="#a" gradientUnits="userSpaceOnUse" gradientTransform="matrix(.67568 0 0 .67568 -.216 -.216)"/><linearGradient id="a"><stop offset="0" stop-color="#fff"/><stop offset=".04" stop-color="#fff" stop-opacity=".235"/><stop offset=".958" stop-color="#fff" stop-opacity=".157"/><stop offset="1" stop-color="#fff" stop-opacity=".392"/></linearGradient><linearGradient x1="167.983" y1="8.508" x2="167.983" y2="54.78" id="k" xlink:href="#b" gradientUnits="userSpaceOnUse" gradientTransform="matrix(.48 0 0 .48 -27.325 .64)"/><linearGradient id="b"><stop offset="0" stop-color="#fffdf3"/><stop offset="1" stop-color="#fbebeb"/></linearGradient><linearGradient id="c"><stop offset="0" stop-color="#181818"/><stop offset="1" stop-color="#181818" stop-opacity="0"/></linearGradient><linearGradient id="d"><stop offset="0" stop-color="#181818"/><stop offset="1" stop-color="#181818" stop-opacity="0"/></linearGradient><linearGradient x1="25.058" y1="47.028" x2="25.058" y2="39.999" id="i" xlink:href="#e" gradientUnits="userSpaceOnUse"/><linearGradient id="e"><stop offset="0" stop-color="#181818" stop-opacity="0"/><stop offset=".5" stop-color="#181818"/><stop offset="1" stop-color="#181818" stop-opacity="0"/></linearGradient><linearGradient xlink:href="#f" id="j" x1="12" y1="3" x2="12" y2="28.976" gradientUnits="userSpaceOnUse"/><radialGradient cx="4.993" cy="43.5" r="2.5" fx="4.993" fy="43.5" id="g" xlink:href="#c" gradientUnits="userSpaceOnUse" gradientTransform="matrix(2.00378 0 0 1.4 27.988 -17.4)"/><radialGradient cx="4.993" cy="43.5" r="2.5" fx="4.993" fy="43.5" id="h" xlink:href="#d" gradientUnits="userSpaceOnUse" gradientTransform="matrix(2.00378 0 0 1.4 -20.012 -104.4)"/></defs><g opacity=".4"><path fill="url(#g)" d="M38 40h5v7h-5z" transform="matrix(.73684 0 0 .42857 -1.684 10.857)"/><path transform="matrix(-.73684 0 0 -.42857 -1.684 10.857)" fill="url(#h)" d="M-10-47h5v7h-5z"/><path fill="url(#i)" d="M10 40h28v7H10z" transform="matrix(.73684 0 0 .42857 -1.684 10.857)"/></g><rect style="marker:none" y="2.5" x="2.5" ry="2.16" rx="2.16" height="27" width="27" color="#000" overflow="visible" fill="url(#j)"/><path style="marker:none" d="M18.238 3.006a1.122 1.122 0 00-.507.27c-8.714 7.478-13.524 8.41-14.884 8.505a1.122 1.122 0 00-.472.135v9.416a1.122 1.122 0 00.54.135c1.34 0 3.448.9 5.468 2.464 1.863 1.444 3.652 3.418 4.96 5.569h13.872c1.197 0 2.16-.963 2.16-2.16v-.135c-1.334-3.22-2.298-7.64-3.038-11.644-.003-.025.004-.042 0-.067-.658-5.117.31-9.676.675-11.104a1.122 1.122 0 00-1.08-1.384h-7.458a1.122 1.122 0 00-.237 0zm0 5.265c-.214 1.458-.373 3.151-.507 5.164-.259 3.897-.337 8.997-.371 14.513-1.331-2.492-3.667-5.048-6.311-7.223-1.527-1.256-3.074-2.332-4.455-3.139-.877-.512-1.653-.876-2.397-1.113 1.65-.32 4.185-.975 7.155-2.835 2.49-1.56 4.966-3.636 6.885-5.367z" color="#000" overflow="visible" opacity=".15" fill="#7a0000" fill-rule="evenodd" stroke-width="1.08"/><path style="marker:none" d="M18.474 4.12c-8.835 7.58-13.88 8.657-15.559 8.775v2.734c1.267-.177 4.438-.812 7.83-2.936 4.35-2.725 9.551-7.898 9.551-7.898C18.89 7.553 18.478 17.012 18.44 29.5h8.775c.65 0 1.225-.29 1.62-.743v-.033c-1.69-3.486-2.782-8.527-3.611-13.028-.708-5.37.321-10.063.709-11.576h-7.46zM2.915 17.316v3.038c3.549 0 8.928 4.12 11.745 9.146h2.396C15.26 24.694 5.62 17.316 2.915 17.316z" color="#000" overflow="visible" opacity=".3" fill="#7a0000" fill-rule="evenodd" stroke-width="1.08"/><path style="marker:none" d="M18.476 3.04C9.64 10.62 4.594 11.69 2.915 11.809v2.724c1.267-.177 4.452-.791 7.844-2.916 4.35-2.724 9.55-7.896 9.55-7.896-1.426 2.797-1.842 12.444-1.87 25.2h9.117c.714 0 1.279-.565 1.279-1.277-1.69-3.486-2.795-8.525-3.624-13.026-.707-5.37.338-10.065.725-11.578zM2.915 16.248v3.018c3.668 0 9.306 4.401 12.034 9.655h2.291C15.96 24.145 5.713 16.248 2.915 16.248z" color="#000" overflow="visible" fill="url(#k)" stroke-width="1.08"/><path d="M26.337 3.074C22.865 5.189 11.5 11.653 2.915 10.836v5.839s19.087 2.836 25.92-2.801V4.458c0-.755-.594-1.384-1.35-1.384zm2.498 13.23C25.4 19.725 21.869 24.28 19.52 28.96h2.734c1.902-3.213 4.397-6.734 6.581-8.91z" opacity=".05" fill="#7a0000" fill-rule="evenodd" stroke-width="1.08"/><rect y="3.5" x="3.5" ry="1.087" rx="1.087" height="25" width="25" opacity=".4" fill="none" stroke="url(#l)" stroke-linecap="round" stroke-linejoin="round"/><rect style="marker:none" y="2.5" x="2.5" ry="2.16" rx="2.16" height="27" width="27" color="#000" overflow="visible" opacity=".5" fill="none" stroke="#7a0000" stroke-linecap="round" stroke-linejoin="round"/></svg>