<svg xmlns="http://www.w3.org/2000/svg" xmlns:xlink="http://www.w3.org/1999/xlink" height="32" width="32"><defs><linearGradient id="e"><stop offset="0" stop-color="#fafafa"/><stop offset="1" stop-color="#d4d4d4"/></linearGradient><linearGradient id="d"><stop offset="0" stop-color="#fff"/><stop offset=".04" stop-color="#fff" stop-opacity=".235"/><stop offset=".958" stop-color="#fff" stop-opacity=".157"/><stop offset="1" stop-color="#fff" stop-opacity=".392"/></linearGradient><linearGradient id="a"><stop offset="0" stop-color="#181818"/><stop offset="1" stop-color="#181818" stop-opacity="0"/></linearGradient><linearGradient id="b"><stop offset="0" stop-color="#181818"/><stop offset="1" stop-color="#181818" stop-opacity="0"/></linearGradient><linearGradient gradientUnits="userSpaceOnUse" xlink:href="#c" id="k" y2="39.999" x2="25.058" y1="47.028" x1="25.058"/><linearGradient id="c"><stop offset="0" stop-color="#181818" stop-opacity="0"/><stop offset=".5" stop-color="#181818"/><stop offset="1" stop-color="#181818" stop-opacity="0"/></linearGradient><linearGradient gradientTransform="matrix(.67568 0 0 .67568 -.216 -.216)" gradientUnits="userSpaceOnUse" xlink:href="#d" id="m" y2="41.76" x2="24" y1="6.24" x1="24"/><linearGradient xlink:href="#e" id="l" x1="14.33" y1="32.022" x2="14.33" y2="-.07" gradientUnits="userSpaceOnUse" gradientTransform="translate(0 -32)"/><linearGradient id="f"><stop offset="0" stop-color="#fff"/><stop offset=".508" stop-color="#fff" stop-opacity=".235"/><stop offset=".835" stop-color="#fff" stop-opacity=".157"/><stop offset="1" stop-color="#fff" stop-opacity=".392"/></linearGradient><linearGradient y2="44.341" x2="71.204" y1="6.238" x1="71.204" gradientTransform="matrix(-.16216 0 0 .16216 32.132 12.388)" gradientUnits="userSpaceOnUse" id="p" xlink:href="#f"/><linearGradient y2="8.093" x2="38.977" y1="59.968" x1="38.977" gradientTransform="matrix(-.15686 0 0 .15686 25.52 11.167)" gradientUnits="userSpaceOnUse" id="o" xlink:href="#g"/><linearGradient id="g"><stop offset="0" stop-color="#e9e9e9"/><stop offset="1" stop-color="#fff"/></linearGradient><linearGradient y2="55.053" x2="30.271" y1="10.029" x1="30.271" gradientTransform="matrix(.5 0 0 .5625 0 -1.5)" gradientUnits="userSpaceOnUse" id="n" xlink:href="#h"/><linearGradient id="h"><stop offset="0" stop-color="#64baff"/><stop offset="1" stop-color="#3689e6"/></linearGradient><radialGradient gradientTransform="matrix(2.00378 0 0 1.4 27.988 -17.4)" gradientUnits="userSpaceOnUse" xlink:href="#a" id="i" fy="43.5" fx="4.993" r="2.5" cy="43.5" cx="4.993"/><radialGradient gradientTransform="matrix(2.00378 0 0 1.4 -20.012 -104.4)" gradientUnits="userSpaceOnUse" xlink:href="#b" id="j" fy="43.5" fx="4.993" r="2.5" cy="43.5" cx="4.993"/></defs><g opacity=".4"><path fill="url(#i)" d="M38 40h5v7h-5z" transform="matrix(.73684 0 0 .57143 -1.684 4.143)"/><path transform="matrix(-.73684 0 0 -.57143 -1.684 4.143)" fill="url(#j)" d="M-10-47h5v7h-5z"/><path fill="url(#k)" d="M10 40h28v7H10z" transform="matrix(.73684 0 0 .57143 -1.684 4.143)"/></g><rect style="marker:none" y="-29" x="3" ry="1.615" rx="1.615" height="26" width="26" transform="scale(1 -1)" color="#000" overflow="visible" fill="url(#l)"/><rect style="marker:none" y="2.5" x="2.5" ry="2.16" rx="2.16" height="27" width="27" color="#000" overflow="visible" fill="none" stroke="#555761" stroke-linecap="round" stroke-linejoin="round" opacity=".5"/><rect y="3.5" x="3.5" ry="1.19" rx="1.087" height="25" width="25" fill="none" stroke="url(#m)" stroke-linecap="round" stroke-linejoin="round"/><path d="M11.556 12a4.435 4.435 0 00-4.445 4.444 4.435 4.435 0 004.445 4.445h8.888a4.435 4.435 0 004.445-4.445A4.435 4.435 0 0020.444 12z" style="marker:none" color="#000" overflow="visible" opacity=".2" fill="#fff" stroke-width="2"/><path d="M11.5 12A4.49 4.49 0 007 16.5a4.49 4.49 0 004.5 4.5h9a4.49 4.49 0 004.5-4.5 4.49 4.49 0 00-4.5-4.5z" style="marker:none" color="#000" overflow="visible" fill="url(#n)" stroke-width="2"/><path d="M11.5 12A4.49 4.49 0 007 16.5c0 .076.01.15.014.225A4.482 4.482 0 0111.5 12.45h9a4.482 4.482 0 014.486 4.275c.004-.075.014-.15.014-.225a4.49 4.49 0 00-4.5-4.5h-9z" style="marker:none" color="#000" overflow="visible" opacity=".3" fill="#0e4774" stroke-width="2.409"/><path d="M11.521 12C9.086 12 7.118 13.99 7 16.506c.117 2.516 2.072 4.505 4.493 4.505h.479c-2.511 0-4.535-1.903-4.535-4.268 0-2.365 2.024-4.269 4.535-4.269h8.056c2.511 0 4.535 1.904 4.535 4.269s-2.024 4.268-4.535 4.268h.479c2.421 0 4.376-1.989 4.493-4.505C24.882 13.989 22.914 12 20.479 12z" style="marker:none" color="#000" overflow="visible" opacity=".15" fill="#002e99" stroke-width="2.71"/><path d="M5.222 5.222a.444.444 0 01-.889 0 .444.444 0 11.889 0z" style="marker:none" color="#000" overflow="visible" fill="#fff" fill-rule="evenodd" stroke-width=".338"/><path d="M5.222 4.778a.444.444 0 01-.889 0 .444.444 0 11.889 0z" style="marker:none" color="#000" overflow="visible" opacity=".3" fill-rule="evenodd" stroke-width=".338"/><path d="M27.667 5.222a.444.444 0 01-.889 0 .444.444 0 11.889 0z" style="marker:none" color="#000" overflow="visible" fill="#fff" fill-rule="evenodd" stroke-width=".338"/><path d="M27.667 4.778a.444.444 0 01-.889 0 .444.444 0 11.889 0z" style="marker:none" color="#000" overflow="visible" opacity=".3" fill-rule="evenodd" stroke-width=".338"/><path d="M5.222 27.667a.444.444 0 01-.889 0 .444.444 0 11.889 0z" style="marker:none" color="#000" overflow="visible" fill="#fff" fill-rule="evenodd" stroke-width=".338"/><path d="M5.222 27.222a.444.444 0 01-.889 0 .444.444 0 11.889 0z" style="marker:none" color="#000" overflow="visible" opacity=".3" fill-rule="evenodd" stroke-width=".338"/><path d="M27.667 27.667a.444.444 0 01-.889 0 .444.444 0 11.889 0z" style="marker:none" color="#000" overflow="visible" fill="#fff" fill-rule="evenodd" stroke-width=".338"/><path d="M27.667 27.222a.444.444 0 01-.889 0 .444.444 0 11.889 0z" style="marker:none" color="#000" overflow="visible" opacity=".3" fill-rule="evenodd" stroke-width=".338"/><path style="marker:none" d="M20.5 13c2.483 0 4.5 2.017 4.5 4.5S22.983 22 20.5 22a4.503 4.503 0 01-4.5-4.5c0-2.483 2.017-4.5 4.5-4.5z" color="#000" overflow="visible" opacity=".15" stroke-width="2"/><path style="marker:none" d="M20.5 12.5c2.207 0 4 1.793 4 4s-1.793 4-4 4-4-1.793-4-4 1.793-4 4-4z" color="#000" overflow="visible" fill="url(#o)"/><path style="marker:none" d="M17.5 16.5a3 3 0 106 0 3 3 0 00-6 0z" color="#000" overflow="visible" fill="none" stroke="url(#p)" stroke-linecap="round" stroke-linejoin="round"/><path style="marker:none" d="M20.5 12.5c2.207 0 4 1.793 4 4s-1.793 4-4 4-4-1.793-4-4 1.793-4 4-4z" color="#000" overflow="visible" opacity=".5" fill="none" stroke="#656565" stroke-linecap="round" stroke-linejoin="round"/></svg>