<svg xmlns="http://www.w3.org/2000/svg" xmlns:xlink="http://www.w3.org/1999/xlink" height="32" width="32"><defs><linearGradient id="b"><stop offset="0" stop-color="#452981"/><stop offset=".571" stop-color="#7239b3"/><stop offset="1" stop-color="#7239b3"/></linearGradient><linearGradient id="e" y2="39.999" gradientUnits="userSpaceOnUse" x2="25.058" gradientTransform="matrix(.80614 0 0 1 3.296 0)" y1="47.028" x1="25.058"><stop stop-color="#181818" stop-opacity="0" offset="0"/><stop stop-color="#181818" offset=".5"/><stop stop-color="#181818" stop-opacity="0" offset="1"/></linearGradient><linearGradient id="g" y2="30.093" gradientUnits="userSpaceOnUse" x2="30.643" gradientTransform="matrix(.92 0 0 .92 -23.851 2.36)" y1="3.916" x1="30.643"><stop stop-opacity=".272" offset="0"/><stop stop-opacity=".368" offset="1"/></linearGradient><linearGradient id="h" y2="43" gradientUnits="userSpaceOnUse" x2="24" gradientTransform="translate(2.378 4.378) scale(.56757)" y1="5" x1="24"><stop stop-color="#fff" offset="0"/><stop stop-color="#fff" stop-opacity=".235" offset=".063"/><stop stop-color="#fff" stop-opacity=".157" offset=".951"/><stop stop-color="#fff" stop-opacity=".392" offset="1"/></linearGradient><linearGradient id="m" y2="38" gradientUnits="userSpaceOnUse" x2="20" gradientTransform="matrix(.46667 0 0 .46154 3.097 6.27)" y1="23.33" x1="21.22"><stop stop-color="#64baff" offset="0"/><stop stop-color="#8cd5ff" offset="1"/></linearGradient><linearGradient id="n" y2="34" gradientUnits="userSpaceOnUse" x2="23" gradientTransform="matrix(0 .36364 -.38462 0 24.108 15.318)" y1="34.08" x1="7.375"><stop stop-color="#fff" offset="0"/><stop stop-color="#fff" stop-opacity=".235" offset=".156"/><stop stop-color="#fff" stop-opacity=".157" offset=".844"/><stop stop-color="#fff" stop-opacity=".392" offset="1"/></linearGradient><linearGradient id="j" y2="10" gradientUnits="userSpaceOnUse" x2="8" gradientTransform="matrix(1.8163 0 0 1.6784 1.694 -2.951)" y1="15" x1="8"><stop stop-color="#ae6a37" offset="0"/><stop stop-color="#d28e5b" offset="1"/></linearGradient><linearGradient id="i" y2="15" gradientUnits="userSpaceOnUse" x2="9" gradientTransform="matrix(1.8163 0 0 1.6784 1.694 -2.951)" y1="10" x1="9"><stop stop-color="#492714" stop-opacity=".625" offset="0"/><stop stop-color="#6a3f1f" stop-opacity=".77" offset="1"/></linearGradient><linearGradient id="k" y2="230.46" gradientUnits="userSpaceOnUse" x2="633.14" gradientTransform="matrix(1.6814 0 0 1.6205 -1048.4 -352.26)" y1="225.3" x1="633.14"><stop stop-color="#fff" offset="0"/><stop stop-color="#fff" stop-opacity=".235" offset=".143"/><stop stop-color="#fff" stop-opacity=".157" offset=".857"/><stop stop-color="#fff" stop-opacity=".392" offset="1"/></linearGradient><linearGradient id="a"><stop stop-color="#fff" offset="0"/><stop stop-color="#fff" stop-opacity="0" offset="1"/></linearGradient><linearGradient id="p" y2="18" xlink:href="#a" gradientUnits="userSpaceOnUse" x2="9" gradientTransform="matrix(.5 0 0 .49968 1.75 3.256)" y1="21" x1="9"/><linearGradient id="q" y2="18" xlink:href="#a" gradientUnits="userSpaceOnUse" x2="9" gradientTransform="matrix(.5 0 0 .49968 6.75 3.256)" y1="21" x1="9"/><linearGradient id="r" y2="18" xlink:href="#a" gradientUnits="userSpaceOnUse" x2="9" gradientTransform="matrix(.5 0 0 .49968 11.75 3.256)" y1="21" x1="9"/><linearGradient id="s" y2="18" xlink:href="#a" gradientUnits="userSpaceOnUse" x2="9" gradientTransform="matrix(.5 0 0 .49968 16.75 3.256)" y1="21" x1="9"/><linearGradient id="t" y2="18" xlink:href="#a" gradientUnits="userSpaceOnUse" x2="9" gradientTransform="matrix(.5 0 0 .49968 21.75 3.256)" y1="21" x1="9"/><linearGradient id="l" y2="16" gradientUnits="userSpaceOnUse" x2="16" gradientTransform="matrix(.91667 0 0 1 1.333 1)" y1="10" x1="16"><stop offset="0"/><stop stop-opacity="0" offset="1"/></linearGradient><linearGradient gradientUnits="userSpaceOnUse" y2="4.516" x2="14.349" y1="14.962" x1="14.349" id="o" xlink:href="#b"/><radialGradient id="c" gradientUnits="userSpaceOnUse" cy="43.5" cx="4.993" gradientTransform="matrix(2.0038 0 0 1.4 23.917 -17.4)" r="2.5"><stop stop-color="#181818" offset="0"/><stop stop-color="#181818" stop-opacity="0" offset="1"/></radialGradient><radialGradient id="d" gradientUnits="userSpaceOnUse" cy="43.5" cx="4.993" gradientTransform="matrix(2.0038 0 0 1.4 -21.369 -104.4)" r="2.5"><stop stop-color="#181818" offset="0"/><stop stop-color="#181818" stop-opacity="0" offset="1"/></radialGradient><radialGradient id="f" gradientUnits="userSpaceOnUse" cy="8.45" cx="20.931" gradientTransform="matrix(0 1.3183 -1.3597 0 27.49 -38.553)" r="20"><stop stop-color="#f4f4f4" offset="0"/><stop stop-color="#d0d0d0" offset="1"/></radialGradient></defs><g opacity=".4"><path fill="url(#c)" d="M33.929 40h5v7h-5z" transform="matrix(.73682 0 0 .57142 -.788 4.28)"/><path transform="matrix(-.73682 0 0 -.57142 -.788 4.28)" fill="url(#d)" d="M-11.357-47h5v7h-5z"/><path fill="url(#e)" d="M11.357 40h22.572v7H11.357z" transform="matrix(.73682 0 0 .57142 -.788 4.28)"/></g><rect transform="scale(1 -1)" rx="1.615" ry="1.615" height="22" width="22" y="-29" x="5" fill="url(#f)" color="#000"/><rect stroke-linejoin="round" rx="2.16" ry="2.16" height="23" width="23" stroke="url(#g)" stroke-linecap="round" y="6.5" x="4.5" fill="none" color="#000"/><rect stroke-linejoin="round" rx="1.087" ry="1.087" height="21" width="21" stroke="url(#h)" stroke-linecap="round" y="7.5" x="5.5" fill="none"/><g stroke-width=".911" color="#000"><path stroke-linejoin="round" d="M16.224 12.419c-1.51 0-2.724 1.139-2.724 2.724v6.405h5.448v-6.405c0-1.585-1.215-2.724-2.724-2.724z" stroke="url(#i)" fill="url(#j)" transform="matrix(1.0999 0 0 1.0946 3.654 5.913)"/><path opacity=".5" d="M16.202 13.295c-1.007 0-1.817.753-1.817 1.69v5.619h3.634v-5.62c0-.961-.81-1.689-1.817-1.689z" stroke="url(#k)" fill="none" transform="matrix(1.0999 0 0 1.0946 3.654 5.913)"/><path d="M24.197 25.083c0 .72-1.1.72-1.1 0s1.1-.72 1.1 0z" fill="#620"/></g><path opacity=".4" d="M7.507 25.463h8.047" stroke="#fff" stroke-linecap="round" fill="none"/><rect opacity=".2" rx="0" ry="0" height="6" width="22" y="11" x="5" fill="url(#l)"/><path opacity=".9" style="isolation:auto;mix-blend-mode:normal;solid-color:#000" d="M7.53 17.5h8.001v7h-8z" fill-rule="evenodd" fill="url(#m)" color="#000"/><path opacity=".2" d="M8.915 20.213l1.867-1.846M9.957 23.524l1.866-1.846M12.497 19.809l1.867-1.846" stroke="#fff" stroke-linecap="round" fill="none"/><path stroke-linejoin="round" style="isolation:auto;mix-blend-mode:normal;solid-color:#000" d="M14.53 18.5v5h-6v-5z" stroke-opacity=".625" stroke="url(#n)" stroke-linecap="round" fill="none" color="#000"/><path opacity=".2" d="M13.816 22.221l1.867-1.846" stroke="#fff" stroke-linecap="round" fill="none"/><path stroke-linejoin="round" style="isolation:auto;mix-blend-mode:normal;solid-color:#000" d="M7.53 17.5h8v7h-8z" stroke="#64baff" stroke-linecap="round" fill="none" color="#000"/><path d="M23.5 4.5v7.46s.01 2.54-2.5 2.54c-2.489 0-2.5-2.541-2.5-2.541V4.5c1.805.016 5 0 5 0zM13.5 4.5v7.46s.01 2.54-2.5 2.54c-2.49 0-2.5-2.541-2.5-2.541V4.5c1.805.016 5 0 5 0z" stroke-opacity=".365" fill-rule="evenodd" stroke="#000" fill="#eaeaea"/><path style="isolation:auto;mix-blend-mode:normal;solid-color:#000;solid-opacity:1;filter-blend-mode:normal;filter-gaussianBlur-deviation:0;font-variant-east_asian:normal" d="M5.5 4.5s-2.032-.132-2 2v5.459S3.51 14.5 6 14.5c2.51 0 2.5-2.541 2.5-2.541V4.5h-3zm8 0v7.459S13.511 14.5 16 14.5c2.51 0 2.5-2.541 2.5-2.541V4.5s-3.195.016-5 0zm10 0v7.459S23.49 14.5 26 14.5c2.49 0 2.5-2.541 2.5-2.541V6.5c.032-2.132-2-2-2-2h-3z" color="#000" overflow="visible" fill="url(#o)" stroke="#05020d" stroke-linecap="round" stroke-linejoin="round" stroke-dashoffset="20" stroke-opacity=".498"/><ellipse stroke-linejoin="round" opacity=".4" style="isolation:auto;mix-blend-mode:normal;solid-color:#000" stroke-linecap="round" stroke-opacity=".392" rx="1.5" ry="1.499" stroke="url(#p)" cy="12.001" cx="6" fill="none" color="#000"/><ellipse stroke-linejoin="round" style="isolation:auto;mix-blend-mode:normal;solid-color:#000" stroke-linecap="round" stroke-opacity=".392" rx="1.5" ry="1.499" stroke="url(#q)" cy="12.001" cx="11" fill="none" color="#000"/><ellipse style="isolation:auto;mix-blend-mode:normal;solid-color:#000" rx="1.5" ry="1.499" cy="12.001" cx="16" stroke-opacity=".392" stroke-linejoin="round" stroke-linecap="round" stroke="url(#r)" fill="none" opacity=".4" color="#000"/><ellipse stroke-linejoin="round" style="isolation:auto;mix-blend-mode:normal;solid-color:#000" stroke-linecap="round" stroke-opacity=".392" rx="1.5" ry="1.499" stroke="url(#s)" cy="12.001" cx="21" fill="none" color="#000"/><ellipse stroke-linejoin="round" opacity=".4" style="isolation:auto;mix-blend-mode:normal;solid-color:#000" stroke-linecap="round" stroke-opacity=".392" rx="1.5" ry="1.499" stroke="url(#t)" cy="12.001" cx="26" fill="none" color="#000"/><path opacity=".1" d="M4 9.5h24M4 5.5h24" stroke="#fff" fill="none"/><rect rx="1.238" ry="1.238" height="5" width="24" y="5" x="4" opacity=".05" fill="#fff"/><path fill="none" stroke-linecap="round" stroke="#000" d="M7.53 17.5h8v7h-8z" style="isolation:auto;mix-blend-mode:normal;solid-color:#000" stroke-linejoin="round" color="#000" opacity=".2"/></svg>